$MeshFormat
4.1 0 8
$EndMeshFormat
$PhysicalNames
4
2 1 "Bottom"
2 2 "Top"
2 3 "Lateral"
3 4 "Cylinder"
$EndPhysicalNames
$Entities
10 12 6 1
0 0 0 0 0 
1 25 0 0 0 
2 0 25 0 0 
3 -25 0 0 0 
4 0 -25 0 0 
5 25 0 40 0 
6 0 0 40 0 
7 0 25 40 0 
12 -25 0 40 0 
17 0 -25 40 0 
1 1.77635683940025e-15 0 0 25 25 0 0 2 1 -2 
2 -25 1.77635683940025e-15 0 0 25 0 0 2 2 -3 
3 -25 -25 0 -1.77635683940025e-15 0 0 0 2 3 -4 
4 0 -25 0 25 -1.77635683940025e-15 0 0 2 4 -1 
6 1.77635683940025e-15 0 40 25 25 40 0 2 5 -7 
7 -25 1.77635683940025e-15 40 0 25 40 0 2 7 -12 
8 -25 -25 40 -1.77635683940025e-15 0 40 0 2 12 -17 
9 0 -25 40 25 -1.77635683940025e-15 40 0 2 17 -5 
11 25 0 0 25 0 40 0 2 1 -5 
12 0 25 0 0 25 40 0 2 2 -7 
16 -25 0 0 -25 0 40 0 2 3 -12 
20 0 -25 0 0 -25 40 0 2 4 -17 
1 -25 -25 0 25 25 0 1 1 4 1 2 3 4 
13 0 0 0 25 25 40 1 3 4 1 12 -6 -11 
17 -25 0 0 0 25 40 1 3 4 2 16 -7 -12 
21 -25 -25 0 0 0 40 1 3 4 3 20 -8 -16 
25 0 -25 0 25 0 40 1 3 4 4 11 -9 -20 
26 -25 -25 40 25 25 40 1 2 4 6 7 8 9 
1 -25 -25 0 25 25 40 1 4 6 -1 26 13 17 21 25 
$EndEntities
$Nodes
27 1305 1 1305
0 1 0 1
1
25 0 0
0 2 0 1
2
0 25 0
0 3 0 1
3
-25 0 0
0 4 0 1
4
0 -25 0
0 5 0 1
5
25 0 40
0 7 0 1
6
0 25 40
0 12 0 1
7
-25 0 40
0 17 0 1
8
0 -25 40
1 1 0 7
9
10
11
12
13
14
15
23.09698830267303 9.567085833532875 0
17.67766948853961 17.67766957078776 0
9.567085779240045 23.09698832516185 0
24.51963200752958 4.877258063228857 0
20.78674028473757 13.88925585965167 0
13.88925578756885 20.78674033290177 0
4.877258035403584 24.51963201306437 0
1 2 0 7
16
17
18
19
20
21
22
-9.567085833532875 23.09698830267303 0
-17.67766957078776 17.67766948853961 0
-23.09698832516185 9.567085779240045 0
-4.877258063228857 24.51963200752958 0
-13.88925585965167 20.78674028473757 0
-20.78674033290177 13.88925578756885 0
-24.51963201306437 4.877258035403584 0
1 3 0 7
23
24
25
26
27
28
29
-23.09698830267303 -9.567085833532875 0
-17.67766948853961 -17.67766957078776 0
-9.567085779240045 -23.09698832516185 0
-24.51963200752958 -4.877258063228857 0
-20.78674028473757 -13.88925585965167 0
-13.88925578756885 -20.78674033290177 0
-4.877258035403584 -24.51963201306437 0
1 4 0 7
30
31
32
33
34
35
36
9.567085833532875 -23.09698830267303 0
17.67766957078776 -17.67766948853961 0
23.09698832516185 -9.567085779240045 0
4.877258063228857 -24.51963200752958 0
13.88925585965167 -20.78674028473757 0
20.78674033290177 -13.88925578756885 0
24.51963201306437 -4.877258035403584 0
1 6 0 7
37
38
39
40
41
42
43
23.09698830267303 9.567085833532875 40
17.67766948853961 17.67766957078776 40
9.567085779240045 23.09698832516185 40
24.51963200752958 4.877258063228857 40
20.78674028473757 13.88925585965167 40
13.88925578756885 20.78674033290177 40
4.877258035403584 24.51963201306437 40
1 7 0 7
44
45
46
47
48
49
50
-9.567085833532875 23.09698830267303 40
-17.67766957078776 17.67766948853961 40
-23.09698832516185 9.567085779240045 40
-4.877258063228857 24.51963200752958 40
-13.88925585965167 20.78674028473757 40
-20.78674033290177 13.88925578756885 40
-24.51963201306437 4.877258035403584 40
1 8 0 7
51
52
53
54
55
56
57
-23.09698830267303 -9.567085833532875 40
-17.67766948853961 -17.67766957078776 40
-9.567085779240045 -23.09698832516185 40
-24.51963200752958 -4.877258063228857 40
-20.78674028473757 -13.88925585965167 40
-13.88925578756885 -20.78674033290177 40
-4.877258035403584 -24.51963201306437 40
1 9 0 7
58
59
60
61
62
63
64
9.567085833532875 -23.09698830267303 40
17.67766957078776 -17.67766948853961 40
23.09698832516185 -9.567085779240045 40
4.877258063228857 -24.51963200752958 40
13.88925585965167 -20.78674028473757 40
20.78674033290177 -13.88925578756885 40
24.51963201306437 -4.877258035403584 40
1 11 0 7
65
66
67
68
69
70
71
25 0 10
25 0 20
25 0 30
25 0 5.000000000002906
25 0 15.00000000000107
25 0 25.00000000000083
25 0 35.00000000000354
1 12 0 7
72
73
74
75
76
77
78
0 25 10
0 25 20
0 25 30
0 25 5.000000000002906
0 25 15.00000000000107
0 25 25.00000000000083
0 25 35.00000000000354
1 16 0 7
79
80
81
82
83
84
85
-25 0 10
-25 0 20
-25 0 30
-25 0 5.000000000002906
-25 0 15.00000000000107
-25 0 25.00000000000083
-25 0 35.00000000000354
1 20 0 7
86
87
88
89
90
91
92
0 -25 10
0 -25 20
0 -25 30
0 -25 5.000000000002906
0 -25 15.00000000000107
0 -25 25.00000000000083
0 -25 35.00000000000354
2 1 0 113
93
94
95
96
97
98
99
100
101
102
103
104
105
106
107
108
109
110
111
112
113
114
115
116
117
118
119
120
121
122
123
124
125
126
127
128
129
130
131
132
133
134
135
136
137
138
139
140
141
142
143
144
145
146
147
148
149
150
151
152
153
154
155
156
157
158
159
160
161
162
163
164
165
166
167
168
169
170
171
172
173
174
175
176
177
178
179
180
181
182
183
184
185
186
187
188
189
190
191
192
193
194
195
196
197
198
199
200
201
202
203
204
205
-15.3380893257192 5.05895934018071 0
15.96850303983855 -6.084642504369987 0
6.620623901049159 15.78558323691562 0
-9.380052539321154 -11.72023276823144 0
-16.53268656456606 -5.617671769364098 0
16.66511743537931 4.261552555805442 0
-3.711714364128675 16.17157182148258 0
4.154210004676751 -15.57239495925747 0
-9.950461605826032 11.10903643205163 0
-3.589882625310493 5.37482457744064 0
1.833369010343604 10.51038787009833 0
1.560625399288985 -0.06427509685094862 0
-2.591040933121503 -3.868685217844206 0
5.937896100372762 -5.622835182273333 0
-9.130413607550649 -1.954971163154918 0
10.87430782593976 -11.28849212829246 0
12.11031272723773 10.61262462691252 0
-14.36939562328655 -11.57303325859831 0
-18.76183828957282 -0.2011725816273084 0
19.18979487829297 -0.6804823414707821 0
0.9990944534506824 18.95697654904599 0
-1.279473168182081 -17.84485041614963 0
11.3415990647281 -0.6545508804508001 0
-0.2106742391282797 -8.871761130597081 0
6.790094104381128 5.047026336485692 0
-12.83155008605835 -3.786321466259508 0
-15.45104109392631 -8.595352513981203 0
-11.87472408130385 -11.64663301341487 0
-9.255233073435901 -6.83760196569318 0
-12.3531370836811 -7.716477239837191 0
-4.795363389224716 -10.29599694941426 0
-1.400857586124891 -6.370223174220643 0
-5.860727270336076 -2.911828190499562 0
-5.328045329780396 -6.603912569956911 0
-12.64427546577262 8.083997886116169 0
-12.23425146663492 1.551994088512896 0
-6.360148116430571 1.709926707142861 0
-6.770172115568263 8.241930504746135 0
-9.502211791101594 4.896962296629515 0
-0.8782568074834445 7.942606223769486 0
-0.939172676892535 13.34097984579046 0
-6.831087984977353 13.64030412676711 0
-3.854672396230399 10.7914551752683 0
-17.04996380764601 2.428893379276701 0
-17.64726242706944 -2.909422175495703 0
-14.94075694685218 -0.6787140434914036 0
-19.81483743361954 -7.592378801448486 0
-21.88091914478641 -0.1005862908136542 0
-21.08344721729951 -3.89334011936228 0
19.88105286902617 6.914319194669158 0
17.92745615683614 1.79053510716733 0
22.09489743914649 -0.3402411707353911 0
21.22354408218286 3.333896585198094 0
-6.639400098830775 19.6342800620778 0
-1.356309955338996 17.56427418526428 0
0.4995472267253412 21.978488274523 0
-3.116784009283927 21.04195309639694 0
6.860647919104814 -19.33469163096525 0
1.437368418247335 -16.70862268770355 0
-0.6397365840910405 -21.42242520807481 0
3.157313240738096 -20.61412734761657 0
-13.8140655883069 14.39335296029562 0
-10.36017192231451 17.21352220575234 0
-16.02353255591308 -14.62535141469303 0
-18.11889068933194 -11.24230418681644 0
14.27598869836376 -14.48308080841603 0
7.514258915308254 -13.43044354377496 0
10.70175738747997 -17.10859191425627 0
14.89399110788867 14.14514709885014 0
14.38771508130852 7.437088591358982 0
17.58722768302304 10.66317222550533 0
-19.21753882544053 7.313022559710378 0
-20.78479791035519 3.653075707340142 0
19.5327456825002 -7.825864141805017 0
17.57914895906576 -3.382562422920385 0
21.04939048606506 -4.129910229161984 0
8.093854840144601 19.44128578103874 0
3.80985917724992 17.3712798929808 0
4.343558606326753 20.94545595302259 0
-9.473569159280601 -17.40861054669665 0
-5.329762853751618 -14.78254159219053 0
-5.103510444577601 -19.65108680262745 0
-16.71550789933719 10.98662683684251 0
13.42140543288916 -8.686567316331221 0
17.10407288289547 -11.28791155195004 0
9.365468314143445 13.19910393191407 0
11.62736205085615 16.99292213240792 0
-12.88198993443635 -16.21668667315832 0
-1.014628613010754 2.655274740294846 0
-0.5152077669162591 -1.966480157347577 0
-3.437677941673415 -0.1282767251023577 0
4.175359751835057 2.491375619817372 0
4.311731557362366 7.778707103292012 0
1.648551472175806 5.21699092179343 0
8.40610196315626 -8.455663655282894 0
2.863610930622241 -7.247298156435207 0
1.971767882774236 -12.22207804492728 0
5.188934922965247 -10.33887085010508 0
3.749260749830873 -2.843555139562141 0
1.174201581852991 -4.606889156891392 0
4.226996455696382 13.14798555350697 0
1.435343250178693 15.35612986938563 0
13.65505105228332 -3.369596692410394 0
8.639747582550429 -3.138693031362067 0
11.03057650771979 -5.912630173846644 0
9.065846584554611 2.196237728017446 0
6.407553667192744 -0.3236587057723475 0
14.0033582500537 1.803500837677321 0
15.79125360455973 -0.7895307926215318 0
-1.678997485488691 -13.5023098185589 0
9.45020341580943 7.829825481699109 0
11.72678083293157 4.816663159688214 0
6.838599935752905 10.48890551760304 0
2 13 0 49
206
207
208
209
210
211
212
213
214
215
216
217
218
219
220
221
222
223
224
225
226
227
228
229
230
231
232
233
234
235
236
237
238
239
240
241
242
243
244
245
246
247
248
249
250
251
252
253
254
23.09698830267303 9.567085833532875 10
23.09698830267303 9.567085833532875 20
23.09698830267303 9.567085833532875 30
17.67766948853961 17.67766957078776 10
17.67766948853961 17.67766957078776 20
17.67766948853961 17.67766957078776 30
9.567085779240045 23.09698832516185 10
9.567085779240045 23.09698832516185 20
9.567085779240045 23.09698832516185 30
23.09698830267303 9.567085833532877 5
24.51963200750397 4.877258063357647 10
24.51963200751678 4.877258063293253 5.000000000001453
23.09698830267303 9.567085833532877 15
24.51963200750397 4.877258063357647 20
24.51963200750397 4.877258063357648 15.00000000000054
23.09698830267303 9.567085833532877 25
24.51963200750397 4.877258063357647 30
24.51963200750397 4.877258063357648 25.00000000000042
23.09698830267303 9.567085833532875 35
24.51963200751678 4.877258063293253 35.00000000000177
17.67766948853961 17.67766957078776 5
20.78674028407004 13.8892558606507 10
20.78674028440381 13.88925586015119 5
17.67766950910165 17.67766955022572 15
20.78674030022553 13.8892558364723 20
20.7867403024288 13.88925583828048 15
17.67766950910165 17.67766955022572 25
20.78674028407004 13.8892558606507 30
20.7867403024288 13.88925583828048 25
17.67766948853961 17.67766957078776 35
20.78674028440381 13.88925586015119 35
9.56708577924006 23.09698832516185 5
13.88925578786279 20.78674033270537 10
13.88925578771583 20.78674033280357 5
9.567085779240076 23.09698832516184 15
13.88925581204118 20.78674031654988 20
13.88925581023302 20.7867403143466 15
9.567085779240076 23.09698832516184 25
13.88925578786279 20.78674033270537 30
13.88925581023302 20.7867403143466 25
9.56708577924006 23.09698832516185 35
13.88925578771583 20.78674033280357 35
4.87725803453918 24.51963201323631 10
4.877258034971389 24.51963201315034 5.000000000001453
4.87725803453918 24.51963201323631 20
4.877258034539195 24.51963201323631 15.00000000000054
4.87725803453918 24.51963201323631 30
4.877258034539195 24.51963201323631 25.00000000000042
4.877258034971389 24.51963201315034 35.00000000000177
2 17 0 49
255
256
257
258
259
260
261
262
263
264
265
266
267
268
269
270
271
272
273
274
275
276
277
278
279
280
281
282
283
284
285
286
287
288
289
290
291
292
293
294
295
296
297
298
299
300
301
302
303
-9.567085833532875 23.09698830267303 10
-9.567085833532875 23.09698830267303 20
-9.567085833532875 23.09698830267303 30
-17.67766957078776 17.67766948853961 10
-17.67766957078776 17.67766948853961 20
-17.67766957078776 17.67766948853961 30
-23.09698832516185 9.567085779240045 10
-23.09698832516185 9.567085779240045 20
-23.09698832516185 9.567085779240045 30
-9.567085833532877 23.09698830267303 5
-4.877258063357647 24.51963200750397 10
-4.877258063293253 24.51963200751678 5.000000000001453
-9.567085833532877 23.09698830267303 15
-4.877258063357647 24.51963200750397 20
-4.877258063357648 24.51963200750397 15.00000000000054
-9.567085833532877 23.09698830267303 25
-4.877258063357647 24.51963200750397 30
-4.877258063357648 24.51963200750397 25.00000000000042
-9.567085833532875 23.09698830267303 35
-4.877258063293253 24.51963200751678 35.00000000000177
-17.67766957078776 17.67766948853961 5
-13.8892558606507 20.78674028407004 10
-13.88925586015119 20.78674028440381 5
-17.67766955022572 17.67766950910165 15
-13.8892558364723 20.78674030022553 20
-13.88925583828048 20.7867403024288 15
-17.67766955022572 17.67766950910165 25
-13.8892558606507 20.78674028407004 30
-13.88925583828048 20.7867403024288 25
-17.67766957078776 17.67766948853961 35
-13.88925586015119 20.78674028440381 35
-23.09698832516185 9.56708577924006 5
-20.78674033270537 13.88925578786279 10
-20.78674033280357 13.88925578771583 5
-23.09698832516184 9.567085779240076 15
-20.78674031654988 13.88925581204118 20
-20.7867403143466 13.88925581023302 15
-23.09698832516184 9.567085779240076 25
-20.78674033270537 13.88925578786279 30
-20.7867403143466 13.88925581023302 25
-23.09698832516185 9.56708577924006 35
-20.78674033280357 13.88925578771583 35
-24.51963201323631 4.87725803453918 10
-24.51963201315034 4.877258034971389 5.000000000001453
-24.51963201323631 4.87725803453918 20
-24.51963201323631 4.877258034539195 15.00000000000054
-24.51963201323631 4.87725803453918 30
-24.51963201323631 4.877258034539195 25.00000000000042
-24.51963201315034 4.877258034971389 35.00000000000177
2 21 0 49
304
305
306
307
308
309
310
311
312
313
314
315
316
317
318
319
320
321
322
323
324
325
326
327
328
329
330
331
332
333
334
335
336
337
338
339
340
341
342
343
344
345
346
347
348
349
350
351
352
-23.09698830267303 -9.567085833532875 10
-23.09698830267303 -9.567085833532875 20
-23.09698830267303 -9.567085833532875 30
-17.67766948853961 -17.67766957078776 10
-17.67766948853961 -17.67766957078776 20
-17.67766948853961 -17.67766957078776 30
-9.567085779240045 -23.09698832516185 10
-9.567085779240045 -23.09698832516185 20
-9.567085779240045 -23.09698832516185 30
-23.09698830267303 -9.567085833532877 5
-24.51963200750397 -4.877258063357647 10
-24.51963200751678 -4.877258063293253 5.000000000001453
-23.09698830267303 -9.567085833532877 15
-24.51963200750397 -4.877258063357647 20
-24.51963200750397 -4.877258063357648 15.00000000000054
-23.09698830267303 -9.567085833532877 25
-24.51963200750397 -4.877258063357647 30
-24.51963200750397 -4.877258063357648 25.00000000000042
-23.09698830267303 -9.567085833532875 35
-24.51963200751678 -4.877258063293253 35.00000000000177
-17.67766948853961 -17.67766957078776 5
-20.78674028407004 -13.8892558606507 10
-20.78674028440381 -13.88925586015119 5
-17.67766950910165 -17.67766955022572 15
-20.78674030022553 -13.8892558364723 20
-20.7867403024288 -13.88925583828048 15
-17.67766950910165 -17.67766955022572 25
-20.78674028407004 -13.8892558606507 30
-20.7867403024288 -13.88925583828048 25
-17.67766948853961 -17.67766957078776 35
-20.78674028440381 -13.88925586015119 35
-9.56708577924006 -23.09698832516185 5
-13.88925578786279 -20.78674033270537 10
-13.88925578771583 -20.78674033280357 5
-9.567085779240076 -23.09698832516184 15
-13.88925581204118 -20.78674031654988 20
-13.88925581023302 -20.7867403143466 15
-9.567085779240076 -23.09698832516184 25
-13.88925578786279 -20.78674033270537 30
-13.88925581023302 -20.7867403143466 25
-9.56708577924006 -23.09698832516185 35
-13.88925578771583 -20.78674033280357 35
-4.87725803453918 -24.51963201323631 10
-4.877258034971389 -24.51963201315034 5.000000000001453
-4.87725803453918 -24.51963201323631 20
-4.877258034539195 -24.51963201323631 15.00000000000054
-4.87725803453918 -24.51963201323631 30
-4.877258034539195 -24.51963201323631 25.00000000000042
-4.877258034971389 -24.51963201315034 35.00000000000177
2 25 0 49
353
354
355
356
357
358
359
360
361
362
363
364
365
366
367
368
369
370
371
372
373
374
375
376
377
378
379
380
381
382
383
384
385
386
387
388
389
390
391
392
393
394
395
396
397
398
399
400
401
9.567085833532875 -23.09698830267303 10
9.567085833532875 -23.09698830267303 20
9.567085833532875 -23.09698830267303 30
17.67766957078776 -17.67766948853961 10
17.67766957078776 -17.67766948853961 20
17.67766957078776 -17.67766948853961 30
23.09698832516185 -9.567085779240045 10
23.09698832516185 -9.567085779240045 20
23.09698832516185 -9.567085779240045 30
9.567085833532877 -23.09698830267303 5
4.877258063357647 -24.51963200750397 10
4.877258063293253 -24.51963200751678 5.000000000001453
9.567085833532877 -23.09698830267303 15
4.877258063357647 -24.51963200750397 20
4.877258063357648 -24.51963200750397 15.00000000000054
9.567085833532877 -23.09698830267303 25
4.877258063357647 -24.51963200750397 30
4.877258063357648 -24.51963200750397 25.00000000000042
9.567085833532875 -23.09698830267303 35
4.877258063293253 -24.51963200751678 35.00000000000177
17.67766957078776 -17.67766948853961 5
13.8892558606507 -20.78674028407004 10
13.88925586015119 -20.78674028440381 5
17.67766955022572 -17.67766950910165 15
13.8892558364723 -20.78674030022553 20
13.88925583828048 -20.7867403024288 15
17.67766955022572 -17.67766950910165 25
13.8892558606507 -20.78674028407004 30
13.88925583828048 -20.7867403024288 25
17.67766957078776 -17.67766948853961 35
13.88925586015119 -20.78674028440381 35
23.09698832516185 -9.56708577924006 5
20.78674033270537 -13.88925578786279 10
20.78674033280357 -13.88925578771583 5
23.09698832516184 -9.567085779240076 15
20.78674031654988 -13.88925581204118 20
20.7867403143466 -13.88925581023302 15
23.09698832516184 -9.567085779240076 25
20.78674033270537 -13.88925578786279 30
20.7867403143466 -13.88925581023302 25
23.09698832516185 -9.56708577924006 35
20.78674033280357 -13.88925578771583 35
24.51963201323631 -4.87725803453918 10
24.51963201315034 -4.877258034971389 5.000000000001453
24.51963201323631 -4.87725803453918 20
24.51963201323631 -4.877258034539195 15.00000000000054
24.51963201323631 -4.87725803453918 30
24.51963201323631 -4.877258034539195 25.00000000000042
24.51963201315034 -4.877258034971389 35.00000000000177
2 26 0 113
402
403
404
405
406
407
408
409
410
411
412
413
414
415
416
417
418
419
420
421
422
423
424
425
426
427
428
429
430
431
432
433
434
435
436
437
438
439
440
441
442
443
444
445
446
447
448
449
450
451
452
453
454
455
456
457
458
459
460
461
462
463
464
465
466
467
468
469
470
471
472
473
474
475
476
477
478
479
480
481
482
483
484
485
486
487
488
489
490
491
492
493
494
495
496
497
498
499
500
501
502
503
504
505
506
507
508
509
510
511
512
513
514
-15.3380893257192 5.05895934018071 40
15.96850303983855 -6.084642504369987 40
6.620623901049159 15.78558323691562 40
-9.380052539321154 -11.72023276823144 40
-16.53268656456606 -5.617671769364098 40
16.66511743537931 4.261552555805442 40
-3.711714364128675 16.17157182148258 40
4.154210004676751 -15.57239495925747 40
-9.950461605826032 11.10903643205163 40
-3.589882625310493 5.37482457744064 40
1.833369010343604 10.51038787009833 40
1.560625399288985 -0.06427509685094862 40
-2.591040933121503 -3.868685217844206 40
5.937896100372762 -5.622835182273333 40
-9.130413607550649 -1.954971163154918 40
10.87430782593976 -11.28849212829246 40
12.11031272723773 10.61262462691252 40
-14.36939562328655 -11.57303325859831 40
-18.76183828957282 -0.2011725816273084 40
19.18979487829297 -0.6804823414707821 40
0.9990944534506824 18.95697654904599 40
-1.279473168182081 -17.84485041614963 40
11.3415990647281 -0.6545508804508001 40
-0.2106742391282797 -8.871761130597081 40
6.790094104381128 5.047026336485692 40
-12.83155008605835 -3.786321466259508 40
-15.45104109392631 -8.595352513981203 40
-11.87472408130385 -11.64663301341487 40
-9.255233073435901 -6.83760196569318 40
-12.3531370836811 -7.716477239837191 40
-4.795363389224716 -10.29599694941426 40
-1.400857586124891 -6.370223174220643 40
-5.860727270336076 -2.911828190499562 40
-5.328045329780396 -6.603912569956911 40
-12.64427546577262 8.083997886116169 40
-12.23425146663492 1.551994088512896 40
-6.360148116430571 1.709926707142861 40
-6.770172115568263 8.241930504746135 40
-9.502211791101594 4.896962296629515 40
-0.8782568074834445 7.942606223769486 40
-0.939172676892535 13.34097984579046 40
-6.831087984977353 13.64030412676711 40
-3.854672396230399 10.7914551752683 40
-17.04996380764601 2.428893379276701 40
-17.64726242706944 -2.909422175495703 40
-14.94075694685218 -0.6787140434914036 40
-19.81483743361954 -7.592378801448486 40
-21.88091914478641 -0.1005862908136542 40
-21.08344721729951 -3.89334011936228 40
19.88105286902617 6.914319194669158 40
17.92745615683614 1.79053510716733 40
22.09489743914649 -0.3402411707353911 40
21.22354408218286 3.333896585198094 40
-6.639400098830775 19.6342800620778 40
-1.356309955338996 17.56427418526428 40
0.4995472267253412 21.978488274523 40
-3.116784009283927 21.04195309639694 40
6.860647919104814 -19.33469163096525 40
1.437368418247335 -16.70862268770355 40
-0.6397365840910405 -21.42242520807481 40
3.157313240738096 -20.61412734761657 40
-13.8140655883069 14.39335296029562 40
-10.36017192231451 17.21352220575234 40
-16.02353255591308 -14.62535141469303 40
-18.11889068933194 -11.24230418681644 40
14.27598869836376 -14.48308080841603 40
7.514258915308254 -13.43044354377496 40
10.70175738747997 -17.10859191425627 40
14.89399110788867 14.14514709885014 40
14.38771508130852 7.437088591358982 40
17.58722768302304 10.66317222550533 40
-19.21753882544053 7.313022559710378 40
-20.78479791035519 3.653075707340142 40
19.5327456825002 -7.825864141805017 40
17.57914895906576 -3.382562422920385 40
21.04939048606506 -4.129910229161984 40
8.093854840144601 19.44128578103874 40
3.80985917724992 17.3712798929808 40
4.343558606326753 20.94545595302259 40
-9.473569159280601 -17.40861054669665 40
-5.329762853751618 -14.78254159219053 40
-5.103510444577601 -19.65108680262745 40
-16.71550789933719 10.98662683684251 40
13.42140543288916 -8.686567316331221 40
17.10407288289547 -11.28791155195004 40
9.365468314143445 13.19910393191407 40
11.62736205085615 16.99292213240792 40
-12.88198993443635 -16.21668667315832 40
-1.014628613010754 2.655274740294846 40
-0.5152077669162591 -1.966480157347577 40
-3.437677941673415 -0.1282767251023577 40
4.175359751835057 2.491375619817372 40
4.311731557362366 7.778707103292012 40
1.648551472175806 5.21699092179343 40
8.40610196315626 -8.455663655282894 40
2.863610930622241 -7.247298156435207 40
1.971767882774236 -12.22207804492728 40
5.188934922965247 -10.33887085010508 40
3.749260749830873 -2.843555139562141 40
1.174201581852991 -4.606889156891392 40
4.226996455696382 13.14798555350697 40
1.435343250178693 15.35612986938563 40
13.65505105228332 -3.369596692410394 40
8.639747582550429 -3.138693031362067 40
11.03057650771979 -5.912630173846644 40
9.065846584554611 2.196237728017446 40
6.407553667192744 -0.3236587057723475 40
14.0033582500537 1.803500837677321 40
15.79125360455973 -0.7895307926215318 40
-1.678997485488691 -13.5023098185589 40
9.45020341580943 7.829825481699109 40
11.72678083293157 4.816663159688214 40
6.838599935752905 10.48890551760304 40
3 1 0 791
515
516
517
518
519
520
521
522
523
524
525
526
527
528
529
530
531
532
533
534
535
536
537
538
539
540
541
542
543
544
545
546
547
548
549
550
551
552
553
554
555
556
557
558
559
560
561
562
563
564
565
566
567
568
569
570
571
572
573
574
575
576
577
578
579
580
581
582
583
584
585
586
587
588
589
590
591
592
593
594
595
596
597
598
599
600
601
602
603
604
605
606
607
608
609
610
611
612
613
614
615
616
617
618
619
620
621
622
623
624
625
626
627
628
629
630
631
632
633
634
635
636
637
638
639
640
641
642
643
644
645
646
647
648
649
650
651
652
653
654
655
656
657
658
659
660
661
662
663
664
665
666
667
668
669
670
671
672
673
674
675
676
677
678
679
680
681
682
683
684
685
686
687
688
689
690
691
692
693
694
695
696
697
698
699
700
701
702
703
704
705
706
707
708
709
710
711
712
713
714
715
716
717
718
719
720
721
722
723
724
725
726
727
728
729
730
731
732
733
734
735
736
737
738
739
740
741
742
743
744
745
746
747
748
749
750
751
752
753
754
755
756
757
758
759
760
761
762
763
764
765
766
767
768
769
770
771
772
773
774
775
776
777
778
779
780
781
782
783
784
785
786
787
788
789
790
791
792
793
794
795
796
797
798
799
800
801
802
803
804
805
806
807
808
809
810
811
812
813
814
815
816
817
818
819
820
821
822
823
824
825
826
827
828
829
830
831
832
833
834
835
836
837
838
839
840
841
842
843
844
845
846
847
848
849
850
851
852
853
854
855
856
857
858
859
860
861
862
863
864
865
866
867
868
869
870
871
872
873
874
875
876
877
878
879
880
881
882
883
884
885
886
887
888
889
890
891
892
893
894
895
896
897
898
899
900
901
902
903
904
905
906
907
908
909
910
911
912
913
914
915
916
917
918
919
920
921
922
923
924
925
926
927
928
929
930
931
932
933
934
935
936
937
938
939
940
941
942
943
944
945
946
947
948
949
950
951
952
953
954
955
956
957
958
959
960
961
962
963
964
965
966
967
968
969
970
971
972
973
974
975
976
977
978
979
980
981
982
983
984
985
986
987
988
989
990
991
992
993
994
995
996
997
998
999
1000
1001
1002
1003
1004
1005
1006
1007
1008
1009
1010
1011
1012
1013
1014
1015
1016
1017
1018
1019
1020
1021
1022
1023
1024
1025
1026
1027
1028
1029
1030
1031
1032
1033
1034
1035
1036
1037
1038
1039
1040
1041
1042
1043
1044
1045
1046
1047
1048
1049
1050
1051
1052
1053
1054
1055
1056
1057
1058
1059
1060
1061
1062
1063
1064
1065
1066
1067
1068
1069
1070
1071
1072
1073
1074
1075
1076
1077
1078
1079
1080
1081
1082
1083
1084
1085
1086
1087
1088
1089
1090
1091
1092
1093
1094
1095
1096
1097
1098
1099
1100
1101
1102
1103
1104
1105
1106
1107
1108
1109
1110
1111
1112
1113
1114
1115
1116
1117
1118
1119
1120
1121
1122
1123
1124
1125
1126
1127
1128
1129
1130
1131
1132
1133
1134
1135
1136
1137
1138
1139
1140
1141
1142
1143
1144
1145
1146
1147
1148
1149
1150
1151
1152
1153
1154
1155
1156
1157
1158
1159
1160
1161
1162
1163
1164
1165
1166
1167
1168
1169
1170
1171
1172
1173
1174
1175
1176
1177
1178
1179
1180
1181
1182
1183
1184
1185
1186
1187
1188
1189
1190
1191
1192
1193
1194
1195
1196
1197
1198
1199
1200
1201
1202
1203
1204
1205
1206
1207
1208
1209
1210
1211
1212
1213
1214
1215
1216
1217
1218
1219
1220
1221
1222
1223
1224
1225
1226
1227
1228
1229
1230
1231
1232
1233
1234
1235
1236
1237
1238
1239
1240
1241
1242
1243
1244
1245
1246
1247
1248
1249
1250
1251
1252
1253
1254
1255
1256
1257
1258
1259
1260
1261
1262
1263
1264
1265
1266
1267
1268
1269
1270
1271
1272
1273
1274
1275
1276
1277
1278
1279
1280
1281
1282
1283
1284
1285
1286
1287
1288
1289
1290
1291
1292
1293
1294
1295
1296
1297
1298
1299
1300
1301
1302
1303
1304
1305
-15.3380893257192 5.05895934018071 10
-15.3380893257192 5.05895934018071 20
-15.3380893257192 5.05895934018071 30
15.96850303983855 -6.084642504369987 10
15.96850303983855 -6.084642504369987 20
15.96850303983855 -6.084642504369987 30
6.620623901049159 15.78558323691562 10
6.620623901049159 15.78558323691562 20
6.620623901049159 15.78558323691562 30
-9.380052539321154 -11.72023276823144 10
-9.380052539321154 -11.72023276823144 20
-9.380052539321154 -11.72023276823144 30
-16.53268656456606 -5.617671769364098 10
-16.53268656456606 -5.617671769364098 20
-16.53268656456606 -5.617671769364098 30
16.66511743537931 4.261552555805442 10
16.66511743537931 4.261552555805442 20
16.66511743537931 4.261552555805442 30
-3.711714364128675 16.17157182148258 10
-3.711714364128675 16.17157182148258 20
-3.711714364128675 16.17157182148258 30
4.154210004676751 -15.57239495925747 10
4.154210004676751 -15.57239495925747 20
4.154210004676751 -15.57239495925747 30
-9.950461605826032 11.10903643205163 10
-9.950461605826032 11.10903643205163 20
-9.950461605826032 11.10903643205163 30
-3.589882625310493 5.37482457744064 10
-3.589882625310493 5.37482457744064 20
-3.589882625310493 5.37482457744064 30
1.833369010343604 10.51038787009833 10
1.833369010343604 10.51038787009833 20
1.833369010343604 10.51038787009833 30
1.560625399288985 -0.06427509685094862 10
1.560625399288985 -0.06427509685094862 20
1.560625399288985 -0.06427509685094862 30
-2.591040933121503 -3.868685217844206 10
-2.591040933121503 -3.868685217844206 20
-2.591040933121503 -3.868685217844206 30
5.937896100372762 -5.622835182273333 10
5.937896100372762 -5.622835182273333 20
5.937896100372762 -5.622835182273333 30
-9.130413607550649 -1.954971163154918 10
-9.130413607550649 -1.954971163154918 20
-9.130413607550649 -1.954971163154918 30
10.87430782593976 -11.28849212829246 10
10.87430782593976 -11.28849212829246 20
10.87430782593976 -11.28849212829246 30
12.11031272723773 10.61262462691252 10
12.11031272723773 10.61262462691252 20
12.11031272723773 10.61262462691252 30
-14.36939562328655 -11.57303325859831 10
-14.36939562328655 -11.57303325859831 20
-14.36939562328655 -11.57303325859831 30
-18.76183828957282 -0.2011725816273084 10
-18.76183828957282 -0.2011725816273084 20
-18.76183828957282 -0.2011725816273084 30
19.18979487829297 -0.6804823414707821 10
19.18979487829297 -0.6804823414707821 20
19.18979487829297 -0.6804823414707821 30
0.9990944534506824 18.95697654904599 10
0.9990944534506824 18.95697654904599 20
0.9990944534506824 18.95697654904599 30
-1.279473168182081 -17.84485041614963 10
-1.279473168182081 -17.84485041614963 20
-1.279473168182081 -17.84485041614963 30
11.3415990647281 -0.6545508804508001 10
11.3415990647281 -0.6545508804508001 20
11.3415990647281 -0.6545508804508001 30
-0.2106742391282797 -8.871761130597081 10
-0.2106742391282797 -8.871761130597081 20
-0.2106742391282797 -8.871761130597081 30
6.790094104381128 5.047026336485692 10
6.790094104381128 5.047026336485692 20
6.790094104381128 5.047026336485692 30
-9.130413607550649 -1.954971163154918 5
-16.53268656456606 -5.617671769364098 5
-14.36939562328655 -11.57303325859831 5
-9.380052539321154 -11.72023276823144 5
-12.83155008605835 -3.786321466259508 10
-9.255233073435901 -6.83760196569318 10
-15.45104109392631 -8.595352513981203 10
-11.87472408130385 -11.64663301341487 10
-12.83155008605835 -3.786321466259508 5
-9.255233073435901 -6.83760196569318 5
-15.45104109392631 -8.595352513981203 5
-11.87472408130385 -11.64663301341487 5
-12.3531370836811 -7.716477239837191 10
-12.3531370836811 -7.716477239837187 5
-9.130413607550649 -1.954971163154918 15
-16.53268656456606 -5.617671769364098 15
-14.36939562328655 -11.57303325859831 15
-9.380052539321154 -11.72023276823144 15
-12.83155008605835 -3.786321466259508 20
-9.255233073435901 -6.83760196569318 20
-15.45104109392631 -8.595352513981203 20
-11.87472408130385 -11.64663301341487 20
-12.83155008605835 -3.786321466259508 15
-9.255233073435901 -6.83760196569318 15
-15.45104109392631 -8.595352513981203 15
-11.87472408130385 -11.64663301341487 15
-12.3531370836811 -7.716477239837191 20
-12.3531370836811 -7.716477239837187 15
-9.130413607550649 -1.954971163154918 25
-16.53268656456606 -5.617671769364098 25
-14.36939562328655 -11.57303325859831 25
-9.380052539321154 -11.72023276823144 25
-12.83155008605835 -3.786321466259508 30
-9.255233073435901 -6.83760196569318 30
-15.45104109392631 -8.595352513981203 30
-11.87472408130385 -11.64663301341487 30
-12.83155008605835 -3.786321466259508 25
-9.255233073435901 -6.83760196569318 25
-15.45104109392631 -8.595352513981203 25
-11.87472408130385 -11.64663301341487 25
-12.3531370836811 -7.716477239837191 30
-12.3531370836811 -7.716477239837187 25
-9.130413607550649 -1.954971163154918 35
-16.53268656456606 -5.617671769364098 35
-14.36939562328655 -11.57303325859831 35
-9.380052539321154 -11.72023276823144 35
-12.83155008605835 -3.786321466259508 35
-9.255233073435901 -6.83760196569318 35
-15.45104109392631 -8.595352513981203 35
-11.87472408130385 -11.64663301341487 35
-12.3531370836811 -7.716477239837187 35
-0.2106742391282797 -8.871761130597081 5
-2.591040933121503 -3.868685217844206 5
-5.860727270336076 -2.911828190499562 10
-4.795363389224716 -10.29599694941426 10
-1.400857586124892 -6.370223174220643 10
-5.860727270336076 -2.911828190499562 5
-4.795363389224716 -10.29599694941426 5
-1.400857586124892 -6.370223174220644 5
-5.328045329780396 -6.603912569956911 10
-5.328045329780394 -6.603912569956912 5
-0.2106742391282797 -8.871761130597081 15
-2.591040933121503 -3.868685217844206 15
-5.860727270336076 -2.911828190499562 20
-4.795363389224716 -10.29599694941426 20
-1.400857586124892 -6.370223174220643 20
-5.860727270336076 -2.911828190499562 15
-4.795363389224716 -10.29599694941426 15
-1.400857586124892 -6.370223174220644 15
-5.328045329780396 -6.603912569956911 20
-5.328045329780394 -6.603912569956912 15
-0.2106742391282797 -8.871761130597081 25
-2.591040933121503 -3.868685217844206 25
-5.860727270336076 -2.911828190499562 30
-4.795363389224716 -10.29599694941426 30
-1.400857586124892 -6.370223174220643 30
-5.860727270336076 -2.911828190499562 25
-4.795363389224716 -10.29599694941426 25
-1.400857586124892 -6.370223174220644 25
-5.328045329780396 -6.603912569956911 30
-5.328045329780394 -6.603912569956912 25
-0.2106742391282797 -8.871761130597081 35
-2.591040933121503 -3.868685217844206 35
-5.860727270336076 -2.911828190499562 35
-4.795363389224716 -10.29599694941426 35
-1.400857586124892 -6.370223174220644 35
-5.328045329780394 -6.603912569956912 35
-9.950461605826032 11.10903643205163 5
-15.3380893257192 5.05895934018071 5
-3.589882625310493 5.37482457744064 5
-12.64427546577262 8.083997886116169 10
-6.770172115568262 8.241930504746135 10
-12.23425146663492 1.551994088512896 10
-6.360148116430571 1.709926707142861 10
-12.64427546577262 8.083997886116169 5
-6.770172115568262 8.241930504746135 5
-12.23425146663492 1.551994088512896 5
-6.360148116430571 1.70992670714286 5
-9.502211791101592 4.896962296629515 10
-9.50221179110159 4.896962296629514 5
-9.950461605826032 11.10903643205163 15
-15.3380893257192 5.05895934018071 15
-3.589882625310493 5.37482457744064 15
-12.64427546577262 8.083997886116169 20
-6.770172115568262 8.241930504746135 20
-12.23425146663492 1.551994088512896 20
-6.360148116430571 1.709926707142861 20
-12.64427546577262 8.083997886116169 15
-6.770172115568261 8.241930504746135 15
-12.23425146663492 1.551994088512896 15
-6.360148116430571 1.709926707142861 15
-9.502211791101592 4.896962296629515 20
-9.50221179110159 4.896962296629515 15
-9.950461605826032 11.10903643205163 25
-15.3380893257192 5.05895934018071 25
-3.589882625310493 5.37482457744064 25
-12.64427546577262 8.083997886116169 30
-6.770172115568262 8.241930504746135 30
-12.23425146663492 1.551994088512896 30
-6.360148116430571 1.709926707142861 30
-12.64427546577262 8.083997886116169 25
-6.770172115568261 8.241930504746135 25
-12.23425146663492 1.551994088512896 25
-6.360148116430571 1.709926707142861 25
-9.502211791101592 4.896962296629515 30
-9.50221179110159 4.896962296629515 25
-9.950461605826032 11.10903643205163 35
-15.3380893257192 5.05895934018071 35
-3.589882625310493 5.37482457744064 35
-12.64427546577262 8.083997886116169 35
-6.770172115568261 8.241930504746135 35
-12.23425146663492 1.551994088512896 35
-6.360148116430571 1.709926707142861 35
-9.502211791101592 4.896962296629515 35
1.833369010343604 10.51038787009833 5
-3.711714364128675 16.17157182148258 5
-6.831087984977353 13.64030412676711 10
-0.8782568074834443 7.942606223769486 10
-0.9391726768925353 13.34097984579046 10
-6.831087984977353 13.64030412676711 5
-0.8782568074834444 7.942606223769486 5
-0.939172676892535 13.34097984579046 5
-3.854672396230399 10.7914551752683 10
-3.854672396230399 10.7914551752683 5
1.833369010343604 10.51038787009833 15
-3.711714364128675 16.17157182148258 15
-6.831087984977353 13.64030412676711 20
-0.8782568074834443 7.942606223769486 20
-0.9391726768925353 13.34097984579046 20
-6.831087984977353 13.64030412676711 15
-0.8782568074834444 7.942606223769486 15
-0.939172676892535 13.34097984579046 15
-3.854672396230399 10.7914551752683 20
-3.854672396230398 10.7914551752683 15
1.833369010343604 10.51038787009833 25
-3.711714364128675 16.17157182148258 25
-6.831087984977353 13.64030412676711 30
-0.8782568074834443 7.942606223769486 30
-0.9391726768925353 13.34097984579046 30
-6.831087984977353 13.64030412676711 25
-0.8782568074834444 7.942606223769486 25
-0.939172676892535 13.34097984579046 25
-3.854672396230399 10.7914551752683 30
-3.854672396230398 10.7914551752683 25
1.833369010343604 10.51038787009833 35
-3.711714364128675 16.17157182148258 35
-6.831087984977353 13.64030412676711 35
-0.8782568074834445 7.942606223769486 35
-0.939172676892535 13.34097984579046 35
-3.854672396230398 10.7914551752683 35
-18.76183828957282 -0.2011725816273084 5
-17.04996380764601 2.428893379276701 10
-17.64726242706944 -2.909422175495703 10
-17.04996380764601 2.428893379276701 5
-17.64726242706944 -2.909422175495703 5
-14.94075694685218 -0.6787140434914037 10
-14.94075694685218 -0.6787140434914036 5
-18.76183828957282 -0.2011725816273084 15
-17.04996380764601 2.428893379276701 20
-17.64726242706944 -2.909422175495703 20
-17.04996380764601 2.428893379276701 15
-17.64726242706944 -2.909422175495703 15
-14.94075694685218 -0.6787140434914037 20
-14.94075694685218 -0.6787140434914036 15
-18.76183828957282 -0.2011725816273084 25
-17.04996380764601 2.428893379276701 30
-17.64726242706944 -2.909422175495703 30
-17.04996380764601 2.428893379276701 25
-17.64726242706944 -2.909422175495703 25
-14.94075694685218 -0.6787140434914037 30
-14.94075694685218 -0.6787140434914036 25
-18.76183828957282 -0.2011725816273084 35
-17.04996380764601 2.428893379276701 35
-17.64726242706944 -2.909422175495703 35
-14.94075694685218 -0.6787140434914036 35
-19.81483743361954 -7.592378801448486 10
-21.88091914478641 -0.1005862908136542 10
-19.81483743361954 -7.592378801448488 5
-21.88091914478641 -0.1005862908136542 5.000000000001453
-21.0834472172867 -3.893340119426676 10
-21.08344721729311 -3.893340119394479 5.000000000000727
-19.81483743361954 -7.592378801448486 20
-21.88091914478641 -0.1005862908136542 20
-19.81483743361954 -7.592378801448488 15
-21.88091914478641 -0.1005862908136542 15.00000000000054
-21.0834472172867 -3.893340119426676 20
-21.0834472172867 -3.893340119426677 15.00000000000027
-19.81483743361954 -7.592378801448486 30
-21.88091914478641 -0.1005862908136542 30
-19.81483743361954 -7.592378801448488 25
-21.88091914478641 -0.1005862908136542 25.00000000000042
-21.0834472172867 -3.893340119426676 30
-21.0834472172867 -3.893340119426677 25.00000000000021
-19.81483743361954 -7.592378801448486 35
-21.88091914478641 -0.1005862908136542 35.00000000000177
-21.08344721729311 -3.893340119394479 35.00000000000089
16.66511743537931 4.261552555805442 5
19.18979487829297 -0.6804823414707821 5
19.88105286902617 6.914319194669158 10
17.92745615683614 1.79053510716733 10
22.09489743914649 -0.3402411707353911 10
19.88105286902617 6.91431919466916 5
17.92745615683614 1.79053510716733 5
22.09489743914649 -0.3402411707353911 5.000000000001453
21.22354408217005 3.333896585262488 10
21.22354408217646 3.333896585230292 5.000000000000727
16.66511743537931 4.261552555805442 15
19.18979487829297 -0.6804823414707821 15
19.88105286902617 6.914319194669158 20
17.92745615683614 1.79053510716733 20
22.09489743914649 -0.3402411707353911 20
19.88105286902617 6.91431919466916 15
17.92745615683614 1.79053510716733 15
22.09489743914649 -0.3402411707353911 15.00000000000054
21.22354408217005 3.333896585262488 20
21.22354408217006 3.333896585262489 15.00000000000027
16.66511743537931 4.261552555805442 25
19.18979487829297 -0.6804823414707821 25
19.88105286902617 6.914319194669158 30
17.92745615683614 1.79053510716733 30
22.09489743914649 -0.3402411707353911 30
19.88105286902617 6.91431919466916 25
17.92745615683614 1.79053510716733 25
22.09489743914649 -0.3402411707353911 25.00000000000042
21.22354408217005 3.333896585262488 30
21.22354408217006 3.333896585262489 25.00000000000021
16.66511743537931 4.261552555805442 35
19.18979487829297 -0.6804823414707821 35
19.88105286902617 6.914319194669158 35
17.92745615683614 1.79053510716733 35
22.09489743914649 -0.3402411707353911 35.00000000000177
21.22354408217646 3.333896585230292 35.00000000000089
0.9990944534506824 18.95697654904599 5
-6.639400098830775 19.6342800620778 10
-1.356309955338996 17.56427418526428 10
0.4995472267253412 21.978488274523 10
-6.639400098830776 19.6342800620778 5
-1.356309955338996 17.56427418526428 5
0.4995472267253412 21.978488274523 5.000000000001453
-3.116784009348322 21.04195309638413 10
-3.116784009316125 21.04195309639054 5.000000000000727
0.9990944534506824 18.95697654904599 15
-6.639400098830775 19.6342800620778 20
-1.356309955338996 17.56427418526428 20
0.4995472267253412 21.978488274523 20
-6.639400098830776 19.6342800620778 15
-1.356309955338996 17.56427418526428 15
0.4995472267253412 21.978488274523 15.00000000000054
-3.116784009348322 21.04195309638413 20
-3.116784009348322 21.04195309638413 15.00000000000027
0.9990944534506824 18.95697654904599 25
-6.639400098830775 19.6342800620778 30
-1.356309955338996 17.56427418526428 30
0.4995472267253412 21.978488274523 30
-6.639400098830776 19.6342800620778 25
-1.356309955338996 17.56427418526428 25
0.4995472267253412 21.978488274523 25.00000000000042
-3.116784009348322 21.04195309638413 30
-3.116784009348322 21.04195309638413 25.00000000000021
0.9990944534506824 18.95697654904599 35
-6.639400098830775 19.6342800620778 35
-1.356309955338996 17.56427418526428 35
0.4995472267253412 21.978488274523 35.00000000000177
-3.116784009316125 21.04195309639053 35.00000000000089
4.154210004676751 -15.57239495925747 5
-1.279473168182081 -17.84485041614963 5
6.860647919104814 -19.33469163096525 10
1.437368418247335 -16.70862268770355 10
-0.6397365840910405 -21.42242520807481 10
6.860647919104814 -19.33469163096525 5
1.437368418247335 -16.70862268770355 5
-0.6397365840910405 -21.42242520807481 5.000000000001453
3.157313240802491 -20.61412734760376 10
3.157313240770293 -20.61412734761015 5.000000000000727
4.154210004676751 -15.57239495925747 15
-1.279473168182081 -17.84485041614963 15
6.860647919104814 -19.33469163096525 20
1.437368418247335 -16.70862268770355 20
-0.6397365840910405 -21.42242520807481 20
6.860647919104814 -19.33469163096525 15
1.437368418247335 -16.70862268770355 15
-0.6397365840910405 -21.42242520807481 15.00000000000054
3.157313240802491 -20.61412734760376 20
3.157313240802491 -20.61412734760375 15.00000000000027
4.154210004676751 -15.57239495925747 25
-1.279473168182081 -17.84485041614963 25
6.860647919104814 -19.33469163096525 30
1.437368418247335 -16.70862268770355 30
-0.6397365840910405 -21.42242520807481 30
6.860647919104814 -19.33469163096525 25
1.437368418247335 -16.70862268770355 25
-0.6397365840910405 -21.42242520807481 25.00000000000042
3.157313240802491 -20.61412734760376 30
3.157313240802491 -20.61412734760375 25.00000000000021
4.154210004676751 -15.57239495925747 35
-1.279473168182081 -17.84485041614963 35
6.860647919104814 -19.33469163096525 35
1.437368418247335 -16.70862268770355 35
-0.6397365840910405 -21.42242520807481 35.00000000000177
3.157313240770294 -20.61412734761017 35.00000000000089
-13.8140655883069 14.39335296029562 10
-13.8140655883069 14.39335296029562 5
-10.36017192281403 17.21352220541858 10
-10.36017192256427 17.21352220558546 5
-13.8140655883069 14.39335296029562 20
-13.81406557802588 14.39335297057664 15
-10.36017191072483 17.21352221349632 20
-10.36017191162891 17.21352221459796 15
-13.8140655883069 14.39335296029562 30
-13.81406557802588 14.39335297057664 25
-10.36017192281403 17.21352220541858 30
-10.36017191162892 17.21352221459796 25
-13.8140655883069 14.39335296029562 35
-10.36017192256427 17.21352220558546 35
-16.02353255591308 -14.62535141469303 10
-16.02353255591308 -14.62535141469304 5
-18.11889068899818 -11.24230418731595 10
-18.11889068916506 -11.24230418706619 5
-16.02353255591308 -14.62535141469303 20
-16.0235325661941 -14.62535140441202 15
-18.11889069707592 -11.24230417522675 20
-18.11889069817756 -11.24230417613084 15
-16.02353255591308 -14.62535141469303 30
-16.0235325661941 -14.62535140441202 25
-18.11889068899818 -11.24230418731595 30
-18.11889069817756 -11.24230417613084 25
-16.02353255591308 -14.62535141469304 35
-18.11889068916506 -11.24230418706619 35
10.87430782593976 -11.28849212829246 5
14.27598869836376 -14.48308080841603 10
7.514258915308254 -13.43044354377496 10
14.27598869836376 -14.48308080841603 5
7.514258915308254 -13.43044354377496 5
10.70175738797948 -17.1085919139225 10
10.70175738772972 -17.10859191408939 5
10.87430782593976 -11.28849212829246 15
14.27598869836376 -14.48308080841603 20
7.514258915308254 -13.43044354377496 20
14.27598868808274 -14.48308081869705 15
7.514258915308254 -13.43044354377496 15
10.70175737589028 -17.10859192200024 20
10.70175737679436 -17.10859192310189 15
10.87430782593976 -11.28849212829246 25
14.27598869836376 -14.48308080841603 30
7.514258915308254 -13.43044354377496 30
14.27598868808274 -14.48308081869705 25
7.514258915308254 -13.43044354377496 25
10.70175738797948 -17.1085919139225 30
10.70175737679437 -17.10859192310189 25
10.87430782593976 -11.28849212829246 35
14.27598869836376 -14.48308080841603 35
7.514258915308254 -13.43044354377496 35
10.70175738772971 -17.10859191408939 35
12.11031272723773 10.61262462691252 5
14.89399110788867 14.14514709885014 10
14.38771508130852 7.437088591358982 10
14.89399110788867 14.14514709885014 5
14.38771508130852 7.437088591358982 5
17.58722768268928 10.66317222600484 10
17.58722768285616 10.66317222575508 5
12.11031272723773 10.61262462691252 15
14.89399110788867 14.14514709885014 20
14.38771508130852 7.437088591358982 20
14.89399111816969 14.14514708856912 15
14.38771508130852 7.437088591358982 15
17.58722769076702 10.66317221391564 20
17.58722769186866 10.66317221481973 15
12.11031272723773 10.61262462691252 25
14.89399110788867 14.14514709885014 30
14.38771508130852 7.437088591358982 30
14.89399111816969 14.14514708856912 25
14.38771508130852 7.437088591358982 25
17.58722768268928 10.66317222600484 30
17.58722769186866 10.66317221481973 25
12.11031272723773 10.61262462691252 35
14.89399110788867 14.14514709885014 35
14.38771508130852 7.437088591358982 35
17.58722768285616 10.66317222575508 35
-19.21753882544053 7.313022559710378 10
-19.21753882544052 7.313022559710385 5
-20.78479791044116 3.65307570690794 10
-20.78479791039818 3.653075707124044 5.000000000000727
-19.21753882544053 7.313022559710378 20
-19.21753882544052 7.313022559710393 15
-20.78479791044116 3.65307570690794 20
-20.78479791044116 3.653075706907948 15.00000000000027
-19.21753882544053 7.313022559710378 30
-19.21753882544052 7.313022559710393 25
-20.78479791044116 3.65307570690794 30
-20.78479791044116 3.653075706907948 25.00000000000021
-19.21753882544052 7.313022559710385 35
-20.78479791039817 3.653075707124044 35.00000000000089
15.96850303983855 -6.084642504369987 5
19.5327456825002 -7.825864141805017 10
17.57914895906576 -3.382562422920385 10
19.5327456825002 -7.825864141805024 5
17.57914895906576 -3.382562422920385 5
21.04939048615103 -4.129910228729782 10
21.04939048610805 -4.129910228945888 5.000000000000727
15.96850303983855 -6.084642504369987 15
19.5327456825002 -7.825864141805017 20
17.57914895906576 -3.382562422920385 20
19.5327456825002 -7.825864141805031 15
17.57914895906576 -3.382562422920385 15
21.04939048615103 -4.129910228729782 20
21.04939048615103 -4.129910228729791 15.00000000000027
15.96850303983855 -6.084642504369987 25
19.5327456825002 -7.825864141805017 30
17.57914895906576 -3.382562422920385 30
19.5327456825002 -7.825864141805031 25
17.57914895906576 -3.382562422920385 25
21.04939048615103 -4.129910228729782 30
21.04939048615103 -4.129910228729791 25.00000000000021
15.96850303983855 -6.084642504369987 35
19.5327456825002 -7.825864141805024 35
17.57914895906576 -3.382562422920385 35
21.04939048610805 -4.129910228945886 35.00000000000089
6.620623901049159 15.78558323691562 5
8.093854840144601 19.44128578103874 10
3.809859177249921 17.3712798929808 10
8.093854840144608 19.44128578103873 5
3.80985917724992 17.3712798929808 5
4.34355860589455 20.94545595310856 10
4.343558606110653 20.94545595306558 5.000000000000727
6.620623901049159 15.78558323691562 15
8.093854840144601 19.44128578103874 20
3.809859177249921 17.3712798929808 20
8.093854840144617 19.44128578103873 15
3.809859177249921 17.3712798929808 15
4.34355860589455 20.94545595310856 20
4.343558605894557 20.94545595310856 15.00000000000027
6.620623901049159 15.78558323691562 25
8.093854840144601 19.44128578103874 30
3.809859177249921 17.3712798929808 30
8.093854840144617 19.44128578103873 25
3.809859177249921 17.3712798929808 25
4.34355860589455 20.94545595310856 30
4.343558605894557 20.94545595310856 25.00000000000021
6.620623901049159 15.78558323691562 35
8.093854840144608 19.44128578103873 35
3.80985917724992 17.3712798929808 35
4.343558606110655 20.94545595306557 35.00000000000089
-9.473569159280601 -17.40861054669665 10
-5.329762853751618 -14.78254159219053 10
-9.473569159280608 -17.40861054669664 5
-5.329762853751618 -14.78254159219053 5
-5.1035104441454 -19.65108680271342 10
-5.103510444361504 -19.65108680267044 5.000000000000727
-9.473569159280601 -17.40861054669665 20
-5.329762853751618 -14.78254159219053 20
-9.473569159280615 -17.40861054669664 15
-5.329762853751618 -14.78254159219053 15
-5.1035104441454 -19.65108680271342 20
-5.103510444145407 -19.65108680271343 15.00000000000027
-9.473569159280601 -17.40861054669665 30
-5.329762853751618 -14.78254159219053 30
-9.473569159280615 -17.40861054669664 25
-5.329762853751618 -14.78254159219053 25
-5.1035104441454 -19.65108680271342 30
-5.103510444145407 -19.65108680271343 25.00000000000021
-9.473569159280608 -17.40861054669664 35
-5.329762853751618 -14.78254159219053 35
-5.103510444361504 -19.65108680267043 35.00000000000089
-16.71550789923899 10.98662683698948 10
-16.7155078992881 10.986626836916 5
-16.71550789116124 10.98662684907868 20
-16.71550789005961 10.9866268481746 15
-16.71550789923899 10.98662683698948 30
-16.71550789005961 10.9866268481746 25
-16.71550789928809 10.986626836916 35
13.42140543288916 -8.686567316331221 10
13.42140543288916 -8.686567316331221 5
17.10407288279726 -11.287911552097 10
17.10407288284636 -11.28791155202352 5
13.42140543288916 -8.686567316331221 20
13.42140543288916 -8.686567316331221 15
17.10407287471952 -11.2879115641862 20
17.10407287361787 -11.28791156328213 15
13.42140543288916 -8.686567316331221 30
13.42140543288916 -8.686567316331221 25
17.10407288279726 -11.287911552097 30
17.10407287361788 -11.28791156328212 25
13.42140543288916 -8.686567316331221 35
17.10407288284636 -11.28791155202352 35
9.365468314143445 13.19910393191407 10
9.365468314143445 13.19910393191407 5
11.62736205100312 16.99292213230972 10
11.62736205092963 16.99292213235882 5
9.365468314143445 13.19910393191407 20
9.365468314143445 13.19910393191407 15
11.62736206309232 16.99292212423197 20
11.62736206218824 16.99292212313034 15
9.365468314143445 13.19910393191407 30
9.365468314143445 13.19910393191407 25
11.62736205100312 16.99292213230972 30
11.62736206218824 16.99292212313034 25
9.365468314143445 13.19910393191407 35
11.62736205092964 16.99292213235883 35
-12.88198993458332 -16.21668667306012 10
-12.88198993450984 -16.21668667310922 5
-12.88198994667252 -16.21668666498238 20
-12.88198994576844 -16.21668666388073 15
-12.88198993458332 -16.21668667306012 30
-12.88198994576844 -16.21668666388073 25
-12.88198993450984 -16.21668667310922 35
1.560625399288985 -0.06427509685094862 5
-1.014628613010754 2.655274740294845 10
-0.5152077669162591 -1.966480157347577 10
-1.014628613010754 2.655274740294845 5
-0.5152077669162591 -1.966480157347577 5
-3.437677941673415 -0.1282767251023581 10
-3.437677941673414 -0.1282767251023582 5
1.560625399288985 -0.06427509685094862 15
-1.014628613010754 2.655274740294845 20
-0.5152077669162591 -1.966480157347577 20
-1.014628613010754 2.655274740294845 15
-0.5152077669162591 -1.966480157347577 15
-3.437677941673415 -0.1282767251023581 20
-3.437677941673414 -0.1282767251023577 15
1.560625399288985 -0.06427509685094862 25
-1.014628613010754 2.655274740294845 30
-0.5152077669162591 -1.966480157347577 30
-1.014628613010754 2.655274740294845 25
-0.5152077669162591 -1.966480157347577 25
-3.437677941673415 -0.1282767251023581 30
-3.437677941673414 -0.1282767251023577 25
1.560625399288985 -0.06427509685094862 35
-1.014628613010754 2.655274740294845 35
-0.5152077669162591 -1.966480157347577 35
-3.437677941673412 -0.1282767251023575 35
6.790094104381128 5.047026336485692 5
4.175359751835057 2.491375619817372 10
4.311731557362366 7.778707103292012 10
4.175359751835057 2.491375619817372 5
4.311731557362366 7.778707103292012 5
1.648551472175806 5.216990921793429 10
1.648551472175806 5.21699092179343 5
6.790094104381128 5.047026336485692 15
4.175359751835057 2.491375619817372 20
4.311731557362366 7.778707103292012 20
4.175359751835057 2.491375619817372 15
4.311731557362366 7.778707103292012 15
1.648551472175806 5.216990921793429 20
1.648551472175806 5.21699092179343 15
6.790094104381128 5.047026336485692 25
4.175359751835057 2.491375619817372 30
4.311731557362366 7.778707103292012 30
4.175359751835057 2.491375619817372 25
4.311731557362366 7.778707103292012 25
1.648551472175806 5.216990921793429 30
1.648551472175806 5.21699092179343 25
6.790094104381128 5.047026336485692 35
4.175359751835057 2.491375619817372 35
4.311731557362366 7.778707103292012 35
1.648551472175806 5.216990921793429 35
5.937896100372762 -5.622835182273333 5
8.40610196315626 -8.455663655282894 10
2.863610930622241 -7.247298156435207 10
1.971767882774236 -12.22207804492728 10
8.40610196315626 -8.455663655282894 5
2.863610930622241 -7.247298156435207 5
1.971767882774236 -12.22207804492728 5
5.188934922965247 -10.33887085010508 10
5.188934922965245 -10.33887085010509 5
5.937896100372762 -5.622835182273333 15
8.40610196315626 -8.455663655282894 20
2.863610930622241 -7.247298156435207 20
1.971767882774236 -12.22207804492728 20
8.40610196315626 -8.455663655282894 15
2.863610930622241 -7.247298156435207 15
1.971767882774235 -12.22207804492728 15
5.188934922965247 -10.33887085010508 20
5.188934922965246 -10.33887085010509 15
5.937896100372762 -5.622835182273333 25
8.40610196315626 -8.455663655282894 30
2.863610930622241 -7.247298156435207 30
1.971767882774236 -12.22207804492728 30
8.40610196315626 -8.455663655282894 25
2.863610930622241 -7.247298156435207 25
1.971767882774235 -12.22207804492728 25
5.188934922965247 -10.33887085010508 30
5.188934922965246 -10.33887085010509 25
5.937896100372762 -5.622835182273333 35
8.40610196315626 -8.455663655282894 35
2.863610930622241 -7.247298156435207 35
1.971767882774236 -12.22207804492728 35
5.188934922965247 -10.33887085010509 35
3.749260749830873 -2.843555139562141 10
3.749260749830873 -2.843555139562141 5
1.174201581852991 -4.606889156891392 10
1.174201581852991 -4.606889156891393 5
3.749260749830873 -2.843555139562141 20
3.749260749830873 -2.843555139562141 15
1.174201581852991 -4.606889156891392 20
1.174201581852991 -4.606889156891393 15
3.749260749830873 -2.843555139562141 30
3.749260749830873 -2.843555139562141 25
1.174201581852991 -4.606889156891392 30
1.174201581852991 -4.606889156891393 25
3.749260749830873 -2.843555139562141 35
1.174201581852991 -4.606889156891393 35
4.226996455696382 13.14798555350697 10
4.226996455696382 13.14798555350697 5
1.435343250178693 15.35612986938563 10
1.435343250178692 15.35612986938563 5
4.226996455696382 13.14798555350697 20
4.226996455696382 13.14798555350697 15
1.435343250178693 15.35612986938563 20
1.435343250178692 15.35612986938563 15
4.226996455696382 13.14798555350697 30
4.226996455696382 13.14798555350697 25
1.435343250178693 15.35612986938563 30
1.435343250178692 15.35612986938563 25
4.226996455696382 13.14798555350697 35
1.435343250178692 15.35612986938563 35
11.3415990647281 -0.6545508804508001 5
13.65505105228332 -3.369596692410394 10
8.639747582550429 -3.138693031362066 10
13.65505105228332 -3.369596692410394 5
8.639747582550429 -3.138693031362066 5
11.03057650771979 -5.912630173846644 10
11.03057650771979 -5.912630173846644 5
11.3415990647281 -0.6545508804508001 15
13.65505105228332 -3.369596692410394 20
8.639747582550429 -3.138693031362066 20
13.65505105228332 -3.369596692410394 15
8.639747582550429 -3.138693031362066 15
11.03057650771979 -5.912630173846644 20
11.03057650771979 -5.912630173846644 15
11.3415990647281 -0.6545508804508001 25
13.65505105228332 -3.369596692410394 30
8.639747582550429 -3.138693031362066 30
13.65505105228332 -3.369596692410394 25
8.639747582550429 -3.138693031362066 25
11.03057650771979 -5.912630173846644 30
11.03057650771979 -5.912630173846644 25
11.3415990647281 -0.6545508804508001 35
13.65505105228332 -3.369596692410394 35
8.639747582550429 -3.138693031362066 35
11.03057650771979 -5.912630173846644 35
9.065846584554611 2.196237728017446 10
9.065846584554611 2.196237728017446 5
6.407553667192744 -0.323658705772347 10
6.407553667192744 -0.3236587057723465 5
9.065846584554611 2.196237728017446 20
9.065846584554611 2.196237728017446 15
6.407553667192744 -0.323658705772347 20
6.407553667192744 -0.3236587057723473 15
9.065846584554611 2.196237728017446 30
9.065846584554611 2.196237728017446 25
6.407553667192744 -0.323658705772347 30
6.407553667192744 -0.3236587057723473 25
9.065846584554611 2.196237728017446 35
6.407553667192744 -0.3236587057723471 35
14.0033582500537 1.803500837677321 10
14.0033582500537 1.803500837677321 5
15.79125360455973 -0.7895307926215316 10
15.79125360455973 -0.7895307926215323 5
14.0033582500537 1.803500837677321 20
14.0033582500537 1.803500837677321 15
15.79125360455973 -0.7895307926215316 20
15.79125360455973 -0.7895307926215318 15
14.0033582500537 1.803500837677321 30
14.0033582500537 1.803500837677321 25
15.79125360455973 -0.7895307926215316 30
15.79125360455973 -0.7895307926215318 25
14.0033582500537 1.803500837677321 35
15.79125360455973 -0.7895307926215319 35
-1.678997485488691 -13.5023098185589 10
-1.67899748548869 -13.5023098185589 5
-1.678997485488691 -13.5023098185589 20
-1.678997485488691 -13.5023098185589 15
-1.678997485488691 -13.5023098185589 30
-1.678997485488691 -13.5023098185589 25
-1.67899748548869 -13.5023098185589 35
9.45020341580943 7.829825481699109 10
9.45020341580943 7.829825481699109 5
11.72678083293157 4.816663159688215 10
11.72678083293156 4.816663159688216 5
9.45020341580943 7.829825481699109 20
9.45020341580943 7.829825481699109 15
11.72678083293157 4.816663159688215 20
11.72678083293156 4.816663159688216 15
9.45020341580943 7.829825481699109 30
9.45020341580943 7.829825481699109 25
11.72678083293157 4.816663159688215 30
11.72678083293156 4.816663159688216 25
9.45020341580943 7.829825481699109 35
11.72678083293156 4.816663159688213 35
6.838599935752905 10.48890551760304 10
6.838599935752905 10.48890551760304 5
6.838599935752905 10.48890551760304 20
6.838599935752905 10.48890551760304 15
6.838599935752905 10.48890551760304 30
6.838599935752905 10.48890551760304 25
6.838599935752905 10.48890551760304 35
$EndNodes
$Elements
7 256 1 256
2 1 10 32
1 107 97 110 96 118 119 120 121 122 
2 107 96 116 105 121 123 124 125 126 
3 101 93 107 102 127 128 129 130 131 
4 101 102 103 99 130 132 133 134 135 
5 93 111 97 107 136 137 118 128 138 
6 23 97 111 3 139 137 140 26 141 
7 9 98 112 1 142 143 144 12 145 
8 16 99 113 2 146 147 148 19 149 
9 30 100 114 4 150 151 152 33 153 
10 17 101 99 16 154 134 146 20 155 
11 24 110 97 23 156 119 139 27 157 
12 31 108 100 30 158 159 150 34 160 
13 10 109 98 9 161 162 142 13 163 
14 93 18 3 111 164 22 140 136 165 
15 94 32 1 112 166 36 144 167 168 
16 95 11 2 113 169 15 148 170 171 
17 96 25 4 114 172 29 152 173 174 
18 18 93 101 17 164 127 154 21 175 
19 32 94 108 31 166 176 158 35 177 
20 11 95 109 10 169 178 161 14 179 
21 25 96 110 24 172 120 156 28 180 
22 104 102 107 105 181 129 125 182 183 
23 102 104 117 103 181 184 185 132 186 
24 108 106 116 100 187 188 189 159 190 
25 104 105 116 106 182 124 188 191 192 
26 99 103 95 113 133 193 170 147 194 
27 108 94 115 106 176 195 196 187 197 
28 117 104 106 115 184 191 196 198 199 
29 98 115 94 112 200 195 167 143 201 
30 100 116 96 114 189 123 173 151 202 
31 115 98 109 117 200 162 203 198 204 
32 103 117 109 95 185 203 178 193 205 
2 13 10 16
33 1 9 206 65 12 215 216 68 217 
34 65 206 207 66 216 218 219 69 220 
35 66 207 208 67 219 221 222 70 223 
36 67 208 37 5 222 224 40 71 225 
37 9 10 209 206 13 226 227 215 228 
38 206 209 210 207 227 229 230 218 231 
39 207 210 211 208 230 232 233 221 234 
40 208 211 38 37 233 235 41 224 236 
41 10 11 212 209 14 237 238 226 239 
42 209 212 213 210 238 240 241 229 242 
43 210 213 214 211 241 243 244 232 245 
44 211 214 39 38 244 246 42 235 247 
45 11 2 72 212 15 75 248 237 249 
46 212 72 73 213 248 76 250 240 251 
47 213 73 74 214 250 77 252 243 253 
48 214 74 6 39 252 78 43 246 254 
2 17 10 16
49 2 16 255 72 19 264 265 75 266 
50 72 255 256 73 265 267 268 76 269 
51 73 256 257 74 268 270 271 77 272 
52 74 257 44 6 271 273 47 78 274 
53 16 17 258 255 20 275 276 264 277 
54 255 258 259 256 276 278 279 267 280 
55 256 259 260 257 279 281 282 270 283 
56 257 260 45 44 282 284 48 273 285 
57 17 18 261 258 21 286 287 275 288 
58 258 261 262 259 287 289 290 278 291 
59 259 262 263 260 290 292 293 281 294 
60 260 263 46 45 293 295 49 284 296 
61 18 3 79 261 22 82 297 286 298 
62 261 79 80 262 297 83 299 289 300 
63 262 80 81 263 299 84 301 292 302 
64 263 81 7 46 301 85 50 295 303 
2 21 10 16
65 3 23 304 79 26 313 314 82 315 
66 79 304 305 80 314 316 317 83 318 
67 80 305 306 81 317 319 320 84 321 
68 81 306 51 7 320 322 54 85 323 
69 23 24 307 304 27 324 325 313 326 
70 304 307 308 305 325 327 328 316 329 
71 305 308 309 306 328 330 331 319 332 
72 306 309 52 51 331 333 55 322 334 
73 24 25 310 307 28 335 336 324 337 
74 307 310 311 308 336 338 339 327 340 
75 308 311 312 309 339 341 342 330 343 
76 309 312 53 52 342 344 56 333 345 
77 25 4 86 310 29 89 346 335 347 
78 310 86 87 311 346 90 348 338 349 
79 311 87 88 312 348 91 350 341 351 
80 312 88 8 53 350 92 57 344 352 
2 25 10 16
81 4 30 353 86 33 362 363 89 364 
82 86 353 354 87 363 365 366 90 367 
83 87 354 355 88 366 368 369 91 370 
84 88 355 58 8 369 371 61 92 372 
85 30 31 356 353 34 373 374 362 375 
86 353 356 357 354 374 376 377 365 378 
87 354 357 358 355 377 379 380 368 381 
88 355 358 59 58 380 382 62 371 383 
89 31 32 359 356 35 384 385 373 386 
90 356 359 360 357 385 387 388 376 389 
91 357 360 361 358 388 390 391 379 392 
92 358 361 60 59 391 393 63 382 394 
93 32 1 65 359 36 68 395 384 396 
94 359 65 66 360 395 69 397 387 398 
95 360 66 67 361 397 70 399 390 400 
96 361 67 5 60 399 71 64 393 401 
2 26 10 32
97 416 406 419 405 427 428 429 430 431 
98 416 405 425 414 430 432 433 434 435 
99 410 402 416 411 436 437 438 439 440 
100 410 411 412 408 439 441 442 443 444 
101 402 420 406 416 445 446 427 437 447 
102 51 406 420 7 448 446 449 54 450 
103 37 407 421 5 451 452 453 40 454 
104 44 408 422 6 455 456 457 47 458 
105 58 409 423 8 459 460 461 61 462 
106 45 410 408 44 463 443 455 48 464 
107 52 419 406 51 465 428 448 55 466 
108 59 417 409 58 467 468 459 62 469 
109 38 418 407 37 470 471 451 41 472 
110 402 46 7 420 473 50 449 445 474 
111 403 60 5 421 475 64 453 476 477 
112 404 39 6 422 478 43 457 479 480 
113 405 53 8 423 481 57 461 482 483 
114 46 402 410 45 473 436 463 49 484 
115 60 403 417 59 475 485 467 63 486 
116 39 404 418 38 478 487 470 42 488 
117 53 405 419 52 481 429 465 56 489 
118 413 411 416 414 490 438 434 491 492 
119 411 413 426 412 490 493 494 441 495 
120 417 415 425 409 496 497 498 468 499 
121 413 414 425 415 491 433 497 500 501 
122 408 412 404 422 442 502 479 456 503 
123 417 403 424 415 485 504 505 496 506 
124 426 413 415 424 493 500 505 507 508 
125 407 424 403 421 509 504 476 452 510 
126 409 425 405 423 498 432 482 460 511 
127 424 407 418 426 509 471 512 507 513 
128 412 426 418 404 494 512 487 502 514 
3 1 12 128
129 107 97 110 96 557 527 566 524 118 121 590 119 591 120 592 593 594 595 596 597 122 598 599 600 601 602 603 
130 557 527 566 524 558 528 567 525 594 595 604 596 605 597 606 607 608 609 610 611 602 612 613 614 615 616 617 
131 558 528 567 525 559 529 568 526 608 609 618 610 619 611 620 621 622 623 624 625 616 626 627 628 629 630 631 
132 559 529 568 526 416 406 419 405 622 623 632 624 633 625 634 635 427 430 428 429 630 636 637 638 639 431 640 
133 107 96 116 105 557 524 584 551 121 125 590 123 593 124 641 642 595 643 644 645 126 599 646 647 648 649 650 
134 557 524 584 551 558 525 585 552 595 643 604 644 607 645 651 652 609 653 654 655 649 613 656 657 658 659 660 
135 558 525 585 552 559 526 586 553 609 653 618 654 621 655 661 662 623 663 664 665 659 627 666 667 668 669 670 
136 559 526 586 553 416 405 425 414 623 663 632 664 635 665 671 672 430 434 432 433 669 637 673 674 675 435 676 
137 101 93 107 102 539 515 557 542 127 130 677 128 678 129 590 679 680 681 682 683 131 684 685 686 687 688 689 
138 539 515 557 542 540 516 558 543 680 681 690 682 691 683 604 692 693 694 695 696 688 697 698 699 700 701 702 
139 540 516 558 543 541 517 559 544 693 694 703 695 704 696 618 705 706 707 708 709 701 710 711 712 713 714 715 
140 541 517 559 544 410 402 416 411 706 707 716 708 717 709 632 718 436 439 437 438 714 719 720 721 722 440 723 
141 101 102 103 99 539 542 545 533 130 134 677 132 679 133 724 725 681 726 727 728 135 685 729 730 731 732 733 
142 539 542 545 533 540 543 546 534 681 726 690 727 692 728 734 735 694 736 737 738 732 698 739 740 741 742 743 
143 540 543 546 534 541 544 547 535 694 736 703 737 705 738 744 745 707 746 747 748 742 711 749 750 751 752 753 
144 541 544 547 535 410 411 412 408 707 746 716 747 718 748 754 755 439 443 441 442 752 720 756 757 758 444 759 
145 93 111 97 107 515 569 527 557 136 128 678 137 760 118 591 590 761 682 762 594 138 763 686 764 598 765 766 
146 515 569 527 557 516 570 528 558 761 682 691 762 767 594 605 604 768 695 769 608 765 770 699 771 612 772 773 
147 516 570 528 558 517 571 529 559 768 695 704 769 774 608 619 618 775 708 776 622 772 777 712 778 626 779 780 
148 517 571 529 559 402 420 406 416 775 708 717 776 781 622 633 632 445 437 446 427 779 782 721 783 636 447 784 
149 23 97 111 3 304 527 569 79 139 26 313 137 591 140 760 82 785 314 762 786 141 787 315 764 788 789 790 
150 304 527 569 79 305 528 570 80 785 314 316 762 605 786 767 83 791 317 769 792 789 793 318 771 794 795 796 
151 305 528 570 80 306 529 571 81 791 317 319 769 619 792 774 84 797 320 776 798 795 799 321 778 800 801 802 
152 306 529 571 81 51 406 420 7 797 320 322 776 633 798 781 85 448 54 446 449 801 803 323 783 804 450 805 
153 9 98 112 1 206 530 572 65 142 12 215 143 806 144 807 68 808 216 809 810 145 811 217 812 813 814 815 
154 206 530 572 65 207 531 573 66 808 216 218 809 816 810 817 69 818 219 819 820 814 821 220 822 823 824 825 
155 207 531 573 66 208 532 574 67 818 219 221 819 826 820 827 70 828 222 829 830 824 831 223 832 833 834 835 
156 208 532 574 67 37 407 421 5 828 222 224 829 836 830 837 71 451 40 452 453 834 838 225 839 840 454 841 
157 16 99 113 2 255 533 575 72 146 19 264 147 725 148 842 75 843 265 844 845 149 846 266 847 848 849 850 
158 255 533 575 72 256 534 576 73 843 265 267 844 735 845 851 76 852 268 853 854 849 855 269 856 857 858 859 
159 256 534 576 73 257 535 577 74 852 268 270 853 745 854 860 77 861 271 862 863 858 864 272 865 866 867 868 
160 257 535 577 74 44 408 422 6 861 271 273 862 755 863 869 78 455 47 456 457 867 870 274 871 872 458 873 
161 30 100 114 4 353 536 578 86 150 33 362 151 874 152 875 89 876 363 877 878 153 879 364 880 881 882 883 
162 353 536 578 86 354 537 579 87 876 363 365 877 884 878 885 90 886 366 887 888 882 889 367 890 891 892 893 
163 354 537 579 87 355 538 580 88 886 366 368 887 894 888 895 91 896 369 897 898 892 899 370 900 901 902 903 
164 355 538 580 88 58 409 423 8 896 369 371 897 904 898 905 92 459 61 460 461 902 906 372 907 908 462 909 
165 17 101 99 16 258 539 533 255 154 20 275 134 677 146 725 264 910 276 726 843 155 911 277 729 846 912 913 
166 258 539 533 255 259 540 534 256 910 276 278 726 690 843 735 267 914 279 736 852 912 915 280 739 855 916 917 
167 259 540 534 256 260 541 535 257 914 279 281 736 703 852 745 270 918 282 746 861 916 919 283 749 864 920 921 
168 260 541 535 257 45 410 408 44 918 282 284 746 716 861 755 273 463 48 443 455 920 922 285 756 870 464 923 
169 24 110 97 23 307 566 527 304 156 27 324 119 592 139 591 313 924 325 596 785 157 925 326 600 787 926 927 
170 307 566 527 304 308 567 528 305 924 325 327 596 606 785 605 316 928 328 610 791 926 929 329 614 793 930 931 
171 308 567 528 305 309 568 529 306 928 328 330 610 620 791 619 319 932 331 624 797 930 933 332 628 799 934 935 
172 309 568 529 306 52 419 406 51 932 331 333 624 634 797 633 322 465 55 428 448 934 936 334 638 803 466 937 
173 31 108 100 30 356 560 536 353 158 34 373 159 938 150 874 362 939 374 940 876 160 941 375 942 879 943 944 
174 356 560 536 353 357 561 537 354 939 374 376 940 945 876 884 365 946 377 947 886 943 948 378 949 889 950 951 
175 357 561 537 354 358 562 538 355 946 377 379 947 952 886 894 368 953 380 954 896 950 955 381 956 899 957 958 
176 358 562 538 355 59 417 409 58 953 380 382 954 959 896 904 371 467 62 468 459 957 960 383 961 906 469 962 
177 10 109 98 9 209 563 530 206 161 13 226 162 963 142 806 215 964 227 965 808 163 966 228 967 811 968 969 
178 209 563 530 206 210 564 531 207 964 227 229 965 970 808 816 218 971 230 972 818 968 973 231 974 821 975 976 
179 210 564 531 207 211 565 532 208 971 230 232 972 977 818 826 221 978 233 979 828 975 980 234 981 831 982 983 
180 211 565 532 208 38 418 407 37 978 233 235 979 984 828 836 224 470 41 471 451 982 985 236 986 838 472 987 
181 93 18 3 111 515 261 79 569 164 136 678 22 286 140 82 760 988 761 297 786 165 989 763 298 788 990 991 
182 515 261 79 569 516 262 80 570 988 761 691 297 289 786 83 767 992 768 299 792 990 993 770 300 794 994 995 
183 516 262 80 570 517 263 81 571 992 768 704 299 292 792 84 774 996 775 301 798 994 997 777 302 800 998 999 
184 517 263 81 571 402 46 7 420 996 775 717 301 295 798 85 781 473 445 50 449 998 1000 782 303 804 474 1001 
185 94 32 1 112 518 359 65 572 166 167 1002 36 384 144 68 807 1003 1004 395 810 168 1005 1006 396 813 1007 1008 
186 518 359 65 572 519 360 66 573 1003 1004 1009 395 387 810 69 817 1010 1011 397 820 1007 1012 1013 398 823 1014 1015 
187 519 360 66 573 520 361 67 574 1010 1011 1016 397 390 820 70 827 1017 1018 399 830 1014 1019 1020 400 833 1021 1022 
188 520 361 67 574 403 60 5 421 1017 1018 1023 399 393 830 71 837 475 476 64 453 1021 1024 1025 401 840 477 1026 
189 95 11 2 113 521 212 72 575 169 170 1027 15 237 148 75 842 1028 1029 248 845 171 1030 1031 249 848 1032 1033 
190 521 212 72 575 522 213 73 576 1028 1029 1034 248 240 845 76 851 1035 1036 250 854 1032 1037 1038 251 857 1039 1040 
191 522 213 73 576 523 214 74 577 1035 1036 1041 250 243 854 77 860 1042 1043 252 863 1039 1044 1045 253 866 1046 1047 
192 523 214 74 577 404 39 6 422 1042 1043 1048 252 246 863 78 869 478 479 43 457 1046 1049 1050 254 872 480 1051 
193 96 25 4 114 524 310 86 578 172 173 593 29 335 152 89 875 1052 1053 346 878 174 1054 1055 347 881 1056 1057 
194 524 310 86 578 525 311 87 579 1052 1053 607 346 338 878 90 885 1058 1059 348 888 1056 1060 1061 349 891 1062 1063 
195 525 311 87 579 526 312 88 580 1058 1059 621 348 341 888 91 895 1064 1065 350 898 1062 1066 1067 351 901 1068 1069 
196 526 312 88 580 405 53 8 423 1064 1065 635 350 344 898 92 905 481 482 57 461 1068 1070 1071 352 908 483 1072 
197 18 93 101 17 261 515 539 258 164 21 286 127 678 154 677 275 988 287 680 910 175 989 288 684 911 1073 1074 
198 261 515 539 258 262 516 540 259 988 287 289 680 691 910 690 278 992 290 693 914 1073 993 291 697 915 1075 1076 
199 262 516 540 259 263 517 541 260 992 290 292 693 704 914 703 281 996 293 706 918 1075 997 294 710 919 1077 1078 
200 263 517 541 260 46 402 410 45 996 293 295 706 717 918 716 284 473 49 436 463 1077 1000 296 719 922 484 1079 
201 32 94 108 31 359 518 560 356 166 35 384 176 1002 158 938 373 1003 385 1080 939 177 1005 386 1081 941 1082 1083 
202 359 518 560 356 360 519 561 357 1003 385 387 1080 1009 939 945 376 1010 388 1084 946 1082 1012 389 1085 948 1086 1087 
203 360 519 561 357 361 520 562 358 1010 388 390 1084 1016 946 952 379 1017 391 1088 953 1086 1019 392 1089 955 1090 1091 
204 361 520 562 358 60 403 417 59 1017 391 393 1088 1023 953 959 382 475 63 485 467 1090 1024 394 1092 960 486 1093 
205 11 95 109 10 212 521 563 209 169 14 237 178 1027 161 963 226 1028 238 1094 964 179 1030 239 1095 966 1096 1097 
206 212 521 563 209 213 522 564 210 1028 238 240 1094 1034 964 970 229 1035 241 1098 971 1096 1037 242 1099 973 1100 1101 
207 213 522 564 210 214 523 565 211 1035 241 243 1098 1041 971 977 232 1042 244 1102 978 1100 1044 245 1103 980 1104 1105 
208 214 523 565 211 39 404 418 38 1042 244 246 1102 1048 978 984 235 478 42 487 470 1104 1049 247 1106 985 488 1107 
209 25 96 110 24 310 524 566 307 172 28 335 120 593 156 592 324 1052 336 597 924 180 1054 337 601 925 1108 1109 
210 310 524 566 307 311 525 567 308 1052 336 338 597 607 924 606 327 1058 339 611 928 1108 1060 340 615 929 1110 1111 
211 311 525 567 308 312 526 568 309 1058 339 341 611 621 928 620 330 1064 342 625 932 1110 1066 343 629 933 1112 1113 
212 312 526 568 309 53 405 419 52 1064 342 344 625 635 932 634 333 481 56 429 465 1112 1070 345 639 936 489 1114 
213 104 102 107 105 548 542 557 551 181 182 1115 129 679 125 590 642 1116 1117 683 643 183 1118 1119 687 646 1120 1121 
214 548 542 557 551 549 543 558 552 1116 1117 1122 683 692 643 604 652 1123 1124 696 653 1120 1125 1126 700 656 1127 1128 
215 549 543 558 552 550 544 559 553 1123 1124 1129 696 705 653 618 662 1130 1131 709 663 1127 1132 1133 713 666 1134 1135 
216 550 544 559 553 413 411 416 414 1130 1131 1136 709 718 663 632 672 490 491 438 434 1134 1137 1138 722 673 492 1139 
217 102 104 117 103 542 548 587 545 181 132 679 184 1115 185 1140 724 1116 727 1141 1142 186 1118 730 1143 1144 1145 1146 
218 542 548 587 545 543 549 588 546 1116 727 692 1141 1122 1142 1147 734 1123 737 1148 1149 1145 1125 740 1150 1151 1152 1153 
219 543 549 588 546 544 550 589 547 1123 737 705 1148 1129 1149 1154 744 1130 747 1155 1156 1152 1132 750 1157 1158 1159 1160 
220 544 550 589 547 411 413 426 412 1130 747 718 1155 1136 1156 1161 754 490 441 493 494 1159 1137 757 1162 1163 495 1164 
221 108 106 116 100 560 554 584 536 187 159 938 188 1165 189 641 874 1166 940 1167 1168 190 1169 942 1170 1171 1172 1173 
222 560 554 584 536 561 555 585 537 1166 940 945 1167 1174 1168 651 884 1175 947 1176 1177 1172 1178 949 1179 1180 1181 1182 
223 561 555 585 537 562 556 586 538 1175 947 952 1176 1183 1177 661 894 1184 954 1185 1186 1181 1187 956 1188 1189 1190 1191 
224 562 556 586 538 417 415 425 409 1184 954 959 1185 1192 1186 671 904 496 468 497 498 1190 1193 961 1194 1195 499 1196 
225 104 105 116 106 548 551 584 554 182 191 1115 124 642 188 641 1165 1117 1197 645 1167 192 1119 1198 648 1170 1199 1200 
226 548 551 584 554 549 552 585 555 1117 1197 1122 645 652 1167 651 1174 1124 1201 655 1176 1199 1126 1202 658 1179 1203 1204 
227 549 552 585 555 550 553 586 556 1124 1201 1129 655 662 1176 661 1183 1131 1205 665 1185 1203 1133 1206 668 1188 1207 1208 
228 550 553 586 556 413 414 425 415 1131 1205 1136 665 672 1185 671 1192 491 500 433 497 1207 1138 1209 675 1194 501 1210 
229 99 103 95 113 533 545 521 575 133 147 725 193 724 170 1027 842 728 844 1211 1029 194 731 847 1212 1031 1213 1214 
230 533 545 521 575 534 546 522 576 728 844 735 1211 734 1029 1034 851 738 853 1215 1036 1213 741 856 1216 1038 1217 1218 
231 534 546 522 576 535 547 523 577 738 853 745 1215 744 1036 1041 860 748 862 1219 1043 1217 751 865 1220 1045 1221 1222 
232 535 547 523 577 408 412 404 422 748 862 755 1219 754 1043 1048 869 442 456 502 479 1221 758 871 1223 1050 503 1224 
233 108 94 115 106 560 518 581 554 176 187 938 195 1002 196 1225 1165 1080 1166 1226 1227 197 1081 1169 1228 1229 1230 1231 
234 560 518 581 554 561 519 582 555 1080 1166 945 1226 1009 1227 1232 1174 1084 1175 1233 1234 1230 1085 1178 1235 1236 1237 1238 
235 561 519 582 555 562 520 583 556 1084 1175 952 1233 1016 1234 1239 1183 1088 1184 1240 1241 1237 1089 1187 1242 1243 1244 1245 
236 562 520 583 556 417 403 424 415 1088 1184 959 1240 1023 1241 1246 1192 485 496 504 505 1244 1092 1193 1247 1248 506 1249 
237 117 104 106 115 587 548 554 581 184 198 1140 191 1115 196 1165 1225 1141 1250 1197 1227 199 1143 1251 1198 1229 1252 1253 
238 587 548 554 581 588 549 555 582 1141 1250 1147 1197 1122 1227 1174 1232 1148 1254 1201 1234 1252 1150 1255 1202 1236 1256 1257 
239 588 549 555 582 589 550 556 583 1148 1254 1154 1201 1129 1234 1183 1239 1155 1258 1205 1241 1256 1157 1259 1206 1243 1260 1261 
240 589 550 556 583 426 413 415 424 1155 1258 1161 1205 1136 1241 1192 1246 493 507 500 505 1260 1162 1262 1209 1248 508 1263 
241 98 115 94 112 530 581 518 572 200 143 806 195 1225 167 1002 807 1264 809 1226 1004 201 1265 812 1228 1006 1266 1267 
242 530 581 518 572 531 582 519 573 1264 809 816 1226 1232 1004 1009 817 1268 819 1233 1011 1266 1269 822 1235 1013 1270 1271 
243 531 582 519 573 532 583 520 574 1268 819 826 1233 1239 1011 1016 827 1272 829 1240 1018 1270 1273 832 1242 1020 1274 1275 
244 532 583 520 574 407 424 403 421 1272 829 836 1240 1246 1018 1023 837 509 452 504 476 1274 1276 839 1247 1025 510 1277 
245 100 116 96 114 536 584 524 578 189 151 874 123 641 173 593 875 1168 877 644 1053 202 1171 880 647 1055 1278 1279 
246 536 584 524 578 537 585 525 579 1168 877 884 644 651 1053 607 885 1177 887 654 1059 1278 1180 890 657 1061 1280 1281 
247 537 585 525 579 538 586 526 580 1177 887 894 654 661 1059 621 895 1186 897 664 1065 1280 1189 900 667 1067 1282 1283 
248 538 586 526 580 409 425 405 423 1186 897 904 664 671 1065 635 905 498 460 432 482 1282 1195 907 674 1071 511 1284 
249 115 98 109 117 581 530 563 587 200 198 1225 162 806 203 963 1140 1264 1250 965 1285 204 1265 1251 967 1286 1287 1288 
250 581 530 563 587 582 531 564 588 1264 1250 1232 965 816 1285 970 1147 1268 1254 972 1289 1287 1269 1255 974 1290 1291 1292 
251 582 531 564 588 583 532 565 589 1268 1254 1239 972 826 1289 977 1154 1272 1258 979 1293 1291 1273 1259 981 1294 1295 1296 
252 583 532 565 589 424 407 418 426 1272 1258 1246 979 836 1293 984 1161 509 507 471 512 1295 1276 1262 986 1297 513 1298 
253 103 117 109 95 545 587 563 521 185 193 724 203 1140 178 963 1027 1142 1211 1285 1094 205 1144 1212 1286 1095 1299 1300 
254 545 587 563 521 546 588 564 522 1142 1211 734 1285 1147 1094 970 1034 1149 1215 1289 1098 1299 1151 1216 1290 1099 1301 1302 
255 546 588 564 522 547 589 565 523 1149 1215 744 1289 1154 1098 977 1041 1156 1219 1293 1102 1301 1158 1220 1294 1103 1303 1304 
256 547 589 565 523 412 426 418 404 1156 1219 754 1293 1161 1102 984 1048 494 502 512 487 1303 1163 1223 1297 1106 514 1305 
$EndElements
