$MeshFormat
4.1 0 8
$EndMeshFormat
$PhysicalNames
4
2 1 "Bottom"
2 2 "Top"
2 3 "Lateral"
3 4 "Cylinder"
$EndPhysicalNames
$Entities
10 12 6 1
0 0 0 0 0 
1 25 0 0 0 
2 0 25 0 0 
3 -25 0 0 0 
4 0 -25 0 0 
5 25 0 40 0 
6 0 0 40 0 
7 0 25 40 0 
12 -25 0 40 0 
17 0 -25 40 0 
1 1.77635683940025e-15 0 0 25 25 0 0 2 1 -2 
2 -25 1.77635683940025e-15 0 0 25 0 0 2 2 -3 
3 -25 -25 0 -1.77635683940025e-15 0 0 0 2 3 -4 
4 0 -25 0 25 -1.77635683940025e-15 0 0 2 4 -1 
6 1.77635683940025e-15 0 40 25 25 40 0 2 5 -7 
7 -25 1.77635683940025e-15 40 0 25 40 0 2 7 -12 
8 -25 -25 40 -1.77635683940025e-15 0 40 0 2 12 -17 
9 0 -25 40 25 -1.77635683940025e-15 40 0 2 17 -5 
11 25 0 0 25 0 40 0 2 1 -5 
12 0 25 0 0 25 40 0 2 2 -7 
16 -25 0 0 -25 0 40 0 2 3 -12 
20 0 -25 0 0 -25 40 0 2 4 -17 
1 -25 -25 0 25 25 0 1 1 4 1 2 3 4 
13 0 0 0 25 25 40 1 3 4 1 12 -6 -11 
17 -25 0 0 0 25 40 1 3 4 2 16 -7 -12 
21 -25 -25 0 0 0 40 1 3 4 3 20 -8 -16 
25 0 -25 0 25 0 40 1 3 4 4 11 -9 -20 
26 -25 -25 40 25 25 40 1 2 4 6 7 8 9 
1 -25 -25 0 25 25 40 1 4 6 -1 26 13 17 21 25 
$EndEntities
$Nodes
27 205 1 205
0 1 0 1
1
25 0 0
0 2 0 1
2
0 25 0
0 3 0 1
3
-25 0 0
0 4 0 1
4
0 -25 0
0 5 0 1
5
25 0 40
0 7 0 1
6
0 25 40
0 12 0 1
7
-25 0 40
0 17 0 1
8
0 -25 40
1 1 0 3
9
10
11
23.09698830267303 9.567085833532875 0
17.67766948853961 17.67766957078776 0
9.567085779240045 23.09698832516185 0
1 2 0 3
12
13
14
-9.567085833532875 23.09698830267303 0
-17.67766957078776 17.67766948853961 0
-23.09698832516185 9.567085779240045 0
1 3 0 3
15
16
17
-23.09698830267303 -9.567085833532875 0
-17.67766948853961 -17.67766957078776 0
-9.567085779240045 -23.09698832516185 0
1 4 0 3
18
19
20
9.567085833532875 -23.09698830267303 0
17.67766957078776 -17.67766948853961 0
23.09698832516185 -9.567085779240045 0
1 6 0 3
21
22
23
23.09698830267303 9.567085833532875 40
17.67766948853961 17.67766957078776 40
9.567085779240045 23.09698832516185 40
1 7 0 3
24
25
26
-9.567085833532875 23.09698830267303 40
-17.67766957078776 17.67766948853961 40
-23.09698832516185 9.567085779240045 40
1 8 0 3
27
28
29
-23.09698830267303 -9.567085833532875 40
-17.67766948853961 -17.67766957078776 40
-9.567085779240045 -23.09698832516185 40
1 9 0 3
30
31
32
9.567085833532875 -23.09698830267303 40
17.67766957078776 -17.67766948853961 40
23.09698832516185 -9.567085779240045 40
1 11 0 3
33
34
35
25 0 10
25 0 20
25 0 30
1 12 0 3
36
37
38
0 25 10
0 25 20
0 25 30
1 16 0 3
39
40
41
-25 0 10
-25 0 20
-25 0 30
1 20 0 3
42
43
44
0 -25 10
0 -25 20
0 -25 30
2 1 0 25
45
46
47
48
49
50
51
52
53
54
55
56
57
58
59
60
61
62
63
64
65
66
67
68
69
-15.3380893257192 5.05895934018071 0
15.96850303983855 -6.084642504369987 0
6.620623901049159 15.78558323691562 0
-9.380052539321154 -11.72023276823144 0
-16.53268656456606 -5.617671769364098 0
16.66511743537931 4.261552555805442 0
-3.711714364128675 16.17157182148258 0
4.154210004676751 -15.57239495925747 0
-9.950461605826032 11.10903643205163 0
-3.589882625310493 5.37482457744064 0
1.833369010343604 10.51038787009833 0
1.560625399288985 -0.06427509685094862 0
-2.591040933121503 -3.868685217844206 0
5.937896100372762 -5.622835182273333 0
-9.130413607550649 -1.954971163154918 0
10.87430782593976 -11.28849212829246 0
12.11031272723773 10.61262462691252 0
-14.36939562328655 -11.57303325859831 0
-18.76183828957282 -0.2011725816273084 0
19.18979487829297 -0.6804823414707821 0
0.9990944534506824 18.95697654904599 0
-1.279473168182081 -17.84485041614963 0
11.3415990647281 -0.6545508804508001 0
-0.2106742391282797 -8.871761130597081 0
6.790094104381128 5.047026336485692 0
2 13 0 9
70
71
72
73
74
75
76
77
78
23.09698830267303 9.567085833532875 10
23.09698830267303 9.567085833532875 20
23.09698830267303 9.567085833532875 30
17.67766948853961 17.67766957078776 10
17.67766948853961 17.67766957078776 20
17.67766948853961 17.67766957078776 30
9.567085779240045 23.09698832516185 10
9.567085779240045 23.09698832516185 20
9.567085779240045 23.09698832516185 30
2 17 0 9
79
80
81
82
83
84
85
86
87
-9.567085833532875 23.09698830267303 10
-9.567085833532875 23.09698830267303 20
-9.567085833532875 23.09698830267303 30
-17.67766957078776 17.67766948853961 10
-17.67766957078776 17.67766948853961 20
-17.67766957078776 17.67766948853961 30
-23.09698832516185 9.567085779240045 10
-23.09698832516185 9.567085779240045 20
-23.09698832516185 9.567085779240045 30
2 21 0 9
88
89
90
91
92
93
94
95
96
-23.09698830267303 -9.567085833532875 10
-23.09698830267303 -9.567085833532875 20
-23.09698830267303 -9.567085833532875 30
-17.67766948853961 -17.67766957078776 10
-17.67766948853961 -17.67766957078776 20
-17.67766948853961 -17.67766957078776 30
-9.567085779240045 -23.09698832516185 10
-9.567085779240045 -23.09698832516185 20
-9.567085779240045 -23.09698832516185 30
2 25 0 9
97
98
99
100
101
102
103
104
105
9.567085833532875 -23.09698830267303 10
9.567085833532875 -23.09698830267303 20
9.567085833532875 -23.09698830267303 30
17.67766957078776 -17.67766948853961 10
17.67766957078776 -17.67766948853961 20
17.67766957078776 -17.67766948853961 30
23.09698832516185 -9.567085779240045 10
23.09698832516185 -9.567085779240045 20
23.09698832516185 -9.567085779240045 30
2 26 0 25
106
107
108
109
110
111
112
113
114
115
116
117
118
119
120
121
122
123
124
125
126
127
128
129
130
-15.3380893257192 5.05895934018071 40
15.96850303983855 -6.084642504369987 40
6.620623901049159 15.78558323691562 40
-9.380052539321154 -11.72023276823144 40
-16.53268656456606 -5.617671769364098 40
16.66511743537931 4.261552555805442 40
-3.711714364128675 16.17157182148258 40
4.154210004676751 -15.57239495925747 40
-9.950461605826032 11.10903643205163 40
-3.589882625310493 5.37482457744064 40
1.833369010343604 10.51038787009833 40
1.560625399288985 -0.06427509685094862 40
-2.591040933121503 -3.868685217844206 40
5.937896100372762 -5.622835182273333 40
-9.130413607550649 -1.954971163154918 40
10.87430782593976 -11.28849212829246 40
12.11031272723773 10.61262462691252 40
-14.36939562328655 -11.57303325859831 40
-18.76183828957282 -0.2011725816273084 40
19.18979487829297 -0.6804823414707821 40
0.9990944534506824 18.95697654904599 40
-1.279473168182081 -17.84485041614963 40
11.3415990647281 -0.6545508804508001 40
-0.2106742391282797 -8.871761130597081 40
6.790094104381128 5.047026336485692 40
3 1 0 75
131
132
133
134
135
136
137
138
139
140
141
142
143
144
145
146
147
148
149
150
151
152
153
154
155
156
157
158
159
160
161
162
163
164
165
166
167
168
169
170
171
172
173
174
175
176
177
178
179
180
181
182
183
184
185
186
187
188
189
190
191
192
193
194
195
196
197
198
199
200
201
202
203
204
205
-15.3380893257192 5.05895934018071 10
-15.3380893257192 5.05895934018071 20
-15.3380893257192 5.05895934018071 30
15.96850303983855 -6.084642504369987 10
15.96850303983855 -6.084642504369987 20
15.96850303983855 -6.084642504369987 30
6.620623901049159 15.78558323691562 10
6.620623901049159 15.78558323691562 20
6.620623901049159 15.78558323691562 30
-9.380052539321154 -11.72023276823144 10
-9.380052539321154 -11.72023276823144 20
-9.380052539321154 -11.72023276823144 30
-16.53268656456606 -5.617671769364098 10
-16.53268656456606 -5.617671769364098 20
-16.53268656456606 -5.617671769364098 30
16.66511743537931 4.261552555805442 10
16.66511743537931 4.261552555805442 20
16.66511743537931 4.261552555805442 30
-3.711714364128675 16.17157182148258 10
-3.711714364128675 16.17157182148258 20
-3.711714364128675 16.17157182148258 30
4.154210004676751 -15.57239495925747 10
4.154210004676751 -15.57239495925747 20
4.154210004676751 -15.57239495925747 30
-9.950461605826032 11.10903643205163 10
-9.950461605826032 11.10903643205163 20
-9.950461605826032 11.10903643205163 30
-3.589882625310493 5.37482457744064 10
-3.589882625310493 5.37482457744064 20
-3.589882625310493 5.37482457744064 30
1.833369010343604 10.51038787009833 10
1.833369010343604 10.51038787009833 20
1.833369010343604 10.51038787009833 30
1.560625399288985 -0.06427509685094862 10
1.560625399288985 -0.06427509685094862 20
1.560625399288985 -0.06427509685094862 30
-2.591040933121503 -3.868685217844206 10
-2.591040933121503 -3.868685217844206 20
-2.591040933121503 -3.868685217844206 30
5.937896100372762 -5.622835182273333 10
5.937896100372762 -5.622835182273333 20
5.937896100372762 -5.622835182273333 30
-9.130413607550649 -1.954971163154918 10
-9.130413607550649 -1.954971163154918 20
-9.130413607550649 -1.954971163154918 30
10.87430782593976 -11.28849212829246 10
10.87430782593976 -11.28849212829246 20
10.87430782593976 -11.28849212829246 30
12.11031272723773 10.61262462691252 10
12.11031272723773 10.61262462691252 20
12.11031272723773 10.61262462691252 30
-14.36939562328655 -11.57303325859831 10
-14.36939562328655 -11.57303325859831 20
-14.36939562328655 -11.57303325859831 30
-18.76183828957282 -0.2011725816273084 10
-18.76183828957282 -0.2011725816273084 20
-18.76183828957282 -0.2011725816273084 30
19.18979487829297 -0.6804823414707821 10
19.18979487829297 -0.6804823414707821 20
19.18979487829297 -0.6804823414707821 30
0.9990944534506824 18.95697654904599 10
0.9990944534506824 18.95697654904599 20
0.9990944534506824 18.95697654904599 30
-1.279473168182081 -17.84485041614963 10
-1.279473168182081 -17.84485041614963 20
-1.279473168182081 -17.84485041614963 30
11.3415990647281 -0.6545508804508001 10
11.3415990647281 -0.6545508804508001 20
11.3415990647281 -0.6545508804508001 30
-0.2106742391282797 -8.871761130597081 10
-0.2106742391282797 -8.871761130597081 20
-0.2106742391282797 -8.871761130597081 30
6.790094104381128 5.047026336485692 10
6.790094104381128 5.047026336485692 20
6.790094104381128 5.047026336485692 30
$EndNodes
$Elements
7 256 1 256
2 1 3 32
1 59 49 62 48 
2 59 48 68 57 
3 53 45 59 54 
4 53 54 55 51 
5 45 63 49 59 
6 15 49 63 3 
7 9 50 64 1 
8 12 51 65 2 
9 18 52 66 4 
10 13 53 51 12 
11 16 62 49 15 
12 19 60 52 18 
13 10 61 50 9 
14 45 14 3 63 
15 46 20 1 64 
16 47 11 2 65 
17 48 17 4 66 
18 14 45 53 13 
19 20 46 60 19 
20 11 47 61 10 
21 17 48 62 16 
22 56 54 59 57 
23 54 56 69 55 
24 60 58 68 52 
25 56 57 68 58 
26 51 55 47 65 
27 60 46 67 58 
28 69 56 58 67 
29 50 67 46 64 
30 52 68 48 66 
31 67 50 61 69 
32 55 69 61 47 
2 13 3 16
33 1 9 70 33 
34 33 70 71 34 
35 34 71 72 35 
36 35 72 21 5 
37 9 10 73 70 
38 70 73 74 71 
39 71 74 75 72 
40 72 75 22 21 
41 10 11 76 73 
42 73 76 77 74 
43 74 77 78 75 
44 75 78 23 22 
45 11 2 36 76 
46 76 36 37 77 
47 77 37 38 78 
48 78 38 6 23 
2 17 3 16
49 2 12 79 36 
50 36 79 80 37 
51 37 80 81 38 
52 38 81 24 6 
53 12 13 82 79 
54 79 82 83 80 
55 80 83 84 81 
56 81 84 25 24 
57 13 14 85 82 
58 82 85 86 83 
59 83 86 87 84 
60 84 87 26 25 
61 14 3 39 85 
62 85 39 40 86 
63 86 40 41 87 
64 87 41 7 26 
2 21 3 16
65 3 15 88 39 
66 39 88 89 40 
67 40 89 90 41 
68 41 90 27 7 
69 15 16 91 88 
70 88 91 92 89 
71 89 92 93 90 
72 90 93 28 27 
73 16 17 94 91 
74 91 94 95 92 
75 92 95 96 93 
76 93 96 29 28 
77 17 4 42 94 
78 94 42 43 95 
79 95 43 44 96 
80 96 44 8 29 
2 25 3 16
81 4 18 97 42 
82 42 97 98 43 
83 43 98 99 44 
84 44 99 30 8 
85 18 19 100 97 
86 97 100 101 98 
87 98 101 102 99 
88 99 102 31 30 
89 19 20 103 100 
90 100 103 104 101 
91 101 104 105 102 
92 102 105 32 31 
93 20 1 33 103 
94 103 33 34 104 
95 104 34 35 105 
96 105 35 5 32 
2 26 3 32
97 120 110 123 109 
98 120 109 129 118 
99 114 106 120 115 
100 114 115 116 112 
101 106 124 110 120 
102 27 110 124 7 
103 21 111 125 5 
104 24 112 126 6 
105 30 113 127 8 
106 25 114 112 24 
107 28 123 110 27 
108 31 121 113 30 
109 22 122 111 21 
110 106 26 7 124 
111 107 32 5 125 
112 108 23 6 126 
113 109 29 8 127 
114 26 106 114 25 
115 32 107 121 31 
116 23 108 122 22 
117 29 109 123 28 
118 117 115 120 118 
119 115 117 130 116 
120 121 119 129 113 
121 117 118 129 119 
122 112 116 108 126 
123 121 107 128 119 
124 130 117 119 128 
125 111 128 107 125 
126 113 129 109 127 
127 128 111 122 130 
128 116 130 122 108 
3 1 5 128
129 59 49 62 48 173 143 182 140 
130 173 143 182 140 174 144 183 141 
131 174 144 183 141 175 145 184 142 
132 175 145 184 142 120 110 123 109 
133 59 48 68 57 173 140 200 167 
134 173 140 200 167 174 141 201 168 
135 174 141 201 168 175 142 202 169 
136 175 142 202 169 120 109 129 118 
137 53 45 59 54 155 131 173 158 
138 155 131 173 158 156 132 174 159 
139 156 132 174 159 157 133 175 160 
140 157 133 175 160 114 106 120 115 
141 53 54 55 51 155 158 161 149 
142 155 158 161 149 156 159 162 150 
143 156 159 162 150 157 160 163 151 
144 157 160 163 151 114 115 116 112 
145 45 63 49 59 131 185 143 173 
146 131 185 143 173 132 186 144 174 
147 132 186 144 174 133 187 145 175 
148 133 187 145 175 106 124 110 120 
149 15 49 63 3 88 143 185 39 
150 88 143 185 39 89 144 186 40 
151 89 144 186 40 90 145 187 41 
152 90 145 187 41 27 110 124 7 
153 9 50 64 1 70 146 188 33 
154 70 146 188 33 71 147 189 34 
155 71 147 189 34 72 148 190 35 
156 72 148 190 35 21 111 125 5 
157 12 51 65 2 79 149 191 36 
158 79 149 191 36 80 150 192 37 
159 80 150 192 37 81 151 193 38 
160 81 151 193 38 24 112 126 6 
161 18 52 66 4 97 152 194 42 
162 97 152 194 42 98 153 195 43 
163 98 153 195 43 99 154 196 44 
164 99 154 196 44 30 113 127 8 
165 13 53 51 12 82 155 149 79 
166 82 155 149 79 83 156 150 80 
167 83 156 150 80 84 157 151 81 
168 84 157 151 81 25 114 112 24 
169 16 62 49 15 91 182 143 88 
170 91 182 143 88 92 183 144 89 
171 92 183 144 89 93 184 145 90 
172 93 184 145 90 28 123 110 27 
173 19 60 52 18 100 176 152 97 
174 100 176 152 97 101 177 153 98 
175 101 177 153 98 102 178 154 99 
176 102 178 154 99 31 121 113 30 
177 10 61 50 9 73 179 146 70 
178 73 179 146 70 74 180 147 71 
179 74 180 147 71 75 181 148 72 
180 75 181 148 72 22 122 111 21 
181 45 14 3 63 131 85 39 185 
182 131 85 39 185 132 86 40 186 
183 132 86 40 186 133 87 41 187 
184 133 87 41 187 106 26 7 124 
185 46 20 1 64 134 103 33 188 
186 134 103 33 188 135 104 34 189 
187 135 104 34 189 136 105 35 190 
188 136 105 35 190 107 32 5 125 
189 47 11 2 65 137 76 36 191 
190 137 76 36 191 138 77 37 192 
191 138 77 37 192 139 78 38 193 
192 139 78 38 193 108 23 6 126 
193 48 17 4 66 140 94 42 194 
194 140 94 42 194 141 95 43 195 
195 141 95 43 195 142 96 44 196 
196 142 96 44 196 109 29 8 127 
197 14 45 53 13 85 131 155 82 
198 85 131 155 82 86 132 156 83 
199 86 132 156 83 87 133 157 84 
200 87 133 157 84 26 106 114 25 
201 20 46 60 19 103 134 176 100 
202 103 134 176 100 104 135 177 101 
203 104 135 177 101 105 136 178 102 
204 105 136 178 102 32 107 121 31 
205 11 47 61 10 76 137 179 73 
206 76 137 179 73 77 138 180 74 
207 77 138 180 74 78 139 181 75 
208 78 139 181 75 23 108 122 22 
209 17 48 62 16 94 140 182 91 
210 94 140 182 91 95 141 183 92 
211 95 141 183 92 96 142 184 93 
212 96 142 184 93 29 109 123 28 
213 56 54 59 57 164 158 173 167 
214 164 158 173 167 165 159 174 168 
215 165 159 174 168 166 160 175 169 
216 166 160 175 169 117 115 120 118 
217 54 56 69 55 158 164 203 161 
218 158 164 203 161 159 165 204 162 
219 159 165 204 162 160 166 205 163 
220 160 166 205 163 115 117 130 116 
221 60 58 68 52 176 170 200 152 
222 176 170 200 152 177 171 201 153 
223 177 171 201 153 178 172 202 154 
224 178 172 202 154 121 119 129 113 
225 56 57 68 58 164 167 200 170 
226 164 167 200 170 165 168 201 171 
227 165 168 201 171 166 169 202 172 
228 166 169 202 172 117 118 129 119 
229 51 55 47 65 149 161 137 191 
230 149 161 137 191 150 162 138 192 
231 150 162 138 192 151 163 139 193 
232 151 163 139 193 112 116 108 126 
233 60 46 67 58 176 134 197 170 
234 176 134 197 170 177 135 198 171 
235 177 135 198 171 178 136 199 172 
236 178 136 199 172 121 107 128 119 
237 69 56 58 67 203 164 170 197 
238 203 164 170 197 204 165 171 198 
239 204 165 171 198 205 166 172 199 
240 205 166 172 199 130 117 119 128 
241 50 67 46 64 146 197 134 188 
242 146 197 134 188 147 198 135 189 
243 147 198 135 189 148 199 136 190 
244 148 199 136 190 111 128 107 125 
245 52 68 48 66 152 200 140 194 
246 152 200 140 194 153 201 141 195 
247 153 201 141 195 154 202 142 196 
248 154 202 142 196 113 129 109 127 
249 67 50 61 69 197 146 179 203 
250 197 146 179 203 198 147 180 204 
251 198 147 180 204 199 148 181 205 
252 199 148 181 205 128 111 122 130 
253 55 69 61 47 161 203 179 137 
254 161 203 179 137 162 204 180 138 
255 162 204 180 138 163 205 181 139 
256 163 205 181 139 116 130 122 108 
$EndElements
