$MeshFormat
4.1 0 8
$EndMeshFormat
$PhysicalNames
4
2 1 "Bottom"
2 2 "Top"
2 3 "Lateral"
3 4 "Cylinder"
$EndPhysicalNames
$Entities
10 12 6 1
0 0 0 0 0 
1 25 0 0 0 
2 0 25 0 0 
3 -25 0 0 0 
4 0 -25 0 0 
5 25 0 40 0 
6 0 0 40 0 
7 0 25 40 0 
12 -25 0 40 0 
17 0 -25 40 0 
1 1.77635683940025e-15 0 0 25 25 0 0 2 1 -2 
2 -25 1.77635683940025e-15 0 0 25 0 0 2 2 -3 
3 -25 -25 0 -1.77635683940025e-15 0 0 0 2 3 -4 
4 0 -25 0 25 -1.77635683940025e-15 0 0 2 4 -1 
6 1.77635683940025e-15 0 40 25 25 40 0 2 5 -7 
7 -25 1.77635683940025e-15 40 0 25 40 0 2 7 -12 
8 -25 -25 40 -1.77635683940025e-15 0 40 0 2 12 -17 
9 0 -25 40 25 -1.77635683940025e-15 40 0 2 17 -5 
11 25 0 0 25 0 40 0 2 1 -5 
12 0 25 0 0 25 40 0 2 2 -7 
16 -25 0 0 -25 0 40 0 2 3 -12 
20 0 -25 0 0 -25 40 0 2 4 -17 
1 -25 -25 0 25 25 0 1 1 4 1 2 3 4 
13 0 0 0 25 25 40 1 3 4 1 12 -6 -11 
17 -25 0 0 0 25 40 1 3 4 2 16 -7 -12 
21 -25 -25 0 0 0 40 1 3 4 3 20 -8 -16 
25 0 -25 0 25 0 40 1 3 4 4 11 -9 -20 
26 -25 -25 40 25 25 40 1 2 4 6 7 8 9 
1 -25 -25 0 25 25 40 1 4 6 -1 26 13 17 21 25 
$EndEntities
$Nodes
27 287 1 287
0 1 0 1
1
25 0 0
0 2 0 1
2
0 25 0
0 3 0 1
3
-25 0 0
0 4 0 1
4
0 -25 0
0 5 0 1
5
25 0 40
0 7 0 1
6
0 25 40
0 12 0 1
7
-25 0 40
0 17 0 1
8
0 -25 40
1 1 0 3
9
10
11
23.09698830267303 9.567085833532877 0
17.67766948853961 17.67766957078776 0
9.567085779240045 23.09698832516185 0
1 2 0 3
12
13
14
-9.567085833532877 23.09698830267303 0
-17.67766957078776 17.67766948853961 0
-23.09698832516185 9.567085779240045 0
1 3 0 3
15
16
17
-23.09698830267303 -9.567085833532877 0
-17.67766948853961 -17.67766957078776 0
-9.567085779240045 -23.09698832516185 0
1 4 0 3
18
19
20
9.567085833532877 -23.09698830267303 0
17.67766957078776 -17.67766948853961 0
23.09698832516185 -9.567085779240045 0
1 6 0 3
21
22
23
23.09698830267303 9.567085833532877 40
17.67766948853961 17.67766957078776 40
9.567085779240045 23.09698832516185 40
1 7 0 3
24
25
26
-9.567085833532877 23.09698830267303 40
-17.67766957078776 17.67766948853961 40
-23.09698832516185 9.567085779240045 40
1 8 0 3
27
28
29
-23.09698830267303 -9.567085833532877 40
-17.67766948853961 -17.67766957078776 40
-9.567085779240045 -23.09698832516185 40
1 9 0 3
30
31
32
9.567085833532877 -23.09698830267303 40
17.67766957078776 -17.67766948853961 40
23.09698832516185 -9.567085779240045 40
1 11 0 5
33
34
35
36
37
25 0 6.666666666666666
25 0 13.33333333333333
25 0 20
25 0 26.66666666666666
25 0 33.33333333333334
1 12 0 5
38
39
40
41
42
0 25 6.666666666666666
0 25 13.33333333333333
0 25 20
0 25 26.66666666666666
0 25 33.33333333333334
1 16 0 5
43
44
45
46
47
-25 0 6.666666666666666
-25 0 13.33333333333333
-25 0 20
-25 0 26.66666666666666
-25 0 33.33333333333334
1 20 0 5
48
49
50
51
52
0 -25 6.666666666666666
0 -25 13.33333333333333
0 -25 20
0 -25 26.66666666666666
0 -25 33.33333333333334
2 1 0 25
53
54
55
56
57
58
59
60
61
62
63
64
65
66
67
68
69
70
71
72
73
74
75
76
77
6.480604857849528 15.84358102269652 0
-1.654757272928498 -14.92015483281684 0
14.42289144566195 -7.268442483783044 0
-15.59392877806952 6.988944770567677 0
7.718081014493178 -15.66266856681104 0
-13.94881612105975 -8.073876043145226 0
-8.770644870994568 14.79739023726699 0
14.05960647409596 8.810449731684765 0
14.89131386998451 0.8192361497010021 0
6.339005252241725 1.262144570710534 0
6.135578856092061 8.728354208020347 0
-1.148978161521576 1.058079440226239 0
-0.903430926184547 -4.567716171015253 0
-8.174671485990801 0.2227816903129095 0
5.073804029411531 -7.838550733503993 0
1.977326833818697 -18.34406737985574 0
-15.67146613764351 -0.2928725666223577 0
-1.05902544930065 16.06754308862871 0
13.12437261658925 -13.40887354817031 0
-11.71349055262066 -13.5229389201679 0
-14.05040779655856 13.08806037587373 0
12.69814017217336 14.11107316040434 0
-8.482558992074184 7.556884220393408 0
-6.124313257905047 -6.422251656072054 0
-1.232535058094681 8.370108128795279 0
2 13 0 15
78
79
80
81
82
83
84
85
86
87
88
89
90
91
92
23.09698830267303 9.567085833532877 6.666666666666666
23.09698830267303 9.567085833532877 13.33333333333333
23.09698830267303 9.567085833532877 20
23.09698830267303 9.567085833532877 26.66666666666666
23.09698830267303 9.567085833532877 33.33333333333334
17.67766948853961 17.67766957078776 6.666666666666666
17.67766948853961 17.67766957078776 13.33333333333333
17.67766948853961 17.67766957078776 20
17.67766948853961 17.67766957078776 26.66666666666666
17.67766948853961 17.67766957078776 33.33333333333334
9.567085779240045 23.09698832516185 6.666666666666666
9.567085779240045 23.09698832516185 13.33333333333333
9.567085779240045 23.09698832516185 20
9.567085779240045 23.09698832516185 26.66666666666666
9.567085779240045 23.09698832516185 33.33333333333334
2 17 0 15
93
94
95
96
97
98
99
100
101
102
103
104
105
106
107
-9.567085833532877 23.09698830267303 6.666666666666666
-9.567085833532877 23.09698830267303 13.33333333333333
-9.567085833532877 23.09698830267303 20
-9.567085833532877 23.09698830267303 26.66666666666666
-9.567085833532877 23.09698830267303 33.33333333333334
-17.67766957078776 17.67766948853961 6.666666666666666
-17.67766957078776 17.67766948853961 13.33333333333333
-17.67766957078776 17.67766948853961 20
-17.67766957078776 17.67766948853961 26.66666666666666
-17.67766957078776 17.67766948853961 33.33333333333334
-23.09698832516185 9.567085779240045 6.666666666666666
-23.09698832516185 9.567085779240045 13.33333333333333
-23.09698832516185 9.567085779240045 20
-23.09698832516185 9.567085779240045 26.66666666666666
-23.09698832516185 9.567085779240045 33.33333333333334
2 21 0 15
108
109
110
111
112
113
114
115
116
117
118
119
120
121
122
-23.09698830267303 -9.567085833532877 6.666666666666666
-23.09698830267303 -9.567085833532877 13.33333333333333
-23.09698830267303 -9.567085833532877 20
-23.09698830267303 -9.567085833532877 26.66666666666666
-23.09698830267303 -9.567085833532877 33.33333333333334
-17.67766948853961 -17.67766957078776 6.666666666666666
-17.67766948853961 -17.67766957078776 13.33333333333333
-17.67766948853961 -17.67766957078776 20
-17.67766948853961 -17.67766957078776 26.66666666666666
-17.67766948853961 -17.67766957078776 33.33333333333334
-9.567085779240045 -23.09698832516185 6.666666666666666
-9.567085779240045 -23.09698832516185 13.33333333333333
-9.567085779240045 -23.09698832516185 20
-9.567085779240045 -23.09698832516185 26.66666666666666
-9.567085779240045 -23.09698832516185 33.33333333333334
2 25 0 15
123
124
125
126
127
128
129
130
131
132
133
134
135
136
137
9.567085833532877 -23.09698830267303 6.666666666666666
9.567085833532877 -23.09698830267303 13.33333333333333
9.567085833532877 -23.09698830267303 20
9.567085833532877 -23.09698830267303 26.66666666666666
9.567085833532877 -23.09698830267303 33.33333333333334
17.67766957078776 -17.67766948853961 6.666666666666666
17.67766957078776 -17.67766948853961 13.33333333333333
17.67766957078776 -17.67766948853961 20
17.67766957078776 -17.67766948853961 26.66666666666666
17.67766957078776 -17.67766948853961 33.33333333333334
23.09698832516185 -9.567085779240045 6.666666666666666
23.09698832516185 -9.567085779240045 13.33333333333333
23.09698832516185 -9.567085779240045 20
23.09698832516185 -9.567085779240045 26.66666666666666
23.09698832516185 -9.567085779240045 33.33333333333334
2 26 0 25
138
139
140
141
142
143
144
145
146
147
148
149
150
151
152
153
154
155
156
157
158
159
160
161
162
6.480604857849528 15.84358102269652 40
-1.654757272928498 -14.92015483281684 40
14.42289144566195 -7.268442483783044 40
-15.59392877806952 6.988944770567677 40
7.718081014493178 -15.66266856681104 40
-13.94881612105975 -8.073876043145226 40
-8.770644870994568 14.79739023726699 40
14.05960647409596 8.810449731684765 40
14.89131386998451 0.8192361497010021 40
6.339005252241725 1.262144570710534 40
6.135578856092061 8.728354208020347 40
-1.148978161521576 1.058079440226239 40
-0.903430926184547 -4.567716171015253 40
-8.174671485990801 0.2227816903129095 40
5.073804029411531 -7.838550733503993 40
1.977326833818697 -18.34406737985574 40
-15.67146613764351 -0.2928725666223577 40
-1.05902544930065 16.06754308862871 40
13.12437261658925 -13.40887354817031 40
-11.71349055262066 -13.5229389201679 40
-14.05040779655856 13.08806037587373 40
12.69814017217336 14.11107316040434 40
-8.482558992074184 7.556884220393408 40
-6.124313257905047 -6.422251656072054 40
-1.232535058094681 8.370108128795279 40
3 1 0 125
163
164
165
166
167
168
169
170
171
172
173
174
175
176
177
178
179
180
181
182
183
184
185
186
187
188
189
190
191
192
193
194
195
196
197
198
199
200
201
202
203
204
205
206
207
208
209
210
211
212
213
214
215
216
217
218
219
220
221
222
223
224
225
226
227
228
229
230
231
232
233
234
235
236
237
238
239
240
241
242
243
244
245
246
247
248
249
250
251
252
253
254
255
256
257
258
259
260
261
262
263
264
265
266
267
268
269
270
271
272
273
274
275
276
277
278
279
280
281
282
283
284
285
286
287
6.480604857849528 15.84358102269652 6.666666666666666
6.480604857849528 15.84358102269652 13.33333333333333
6.480604857849528 15.84358102269652 20
6.480604857849528 15.84358102269652 26.66666666666666
6.480604857849528 15.84358102269652 33.33333333333334
-1.654757272928498 -14.92015483281684 6.666666666666666
-1.654757272928498 -14.92015483281684 13.33333333333333
-1.654757272928498 -14.92015483281684 20
-1.654757272928498 -14.92015483281684 26.66666666666666
-1.654757272928498 -14.92015483281684 33.33333333333334
14.42289144566195 -7.268442483783044 6.666666666666666
14.42289144566195 -7.268442483783044 13.33333333333333
14.42289144566195 -7.268442483783044 20
14.42289144566195 -7.268442483783044 26.66666666666666
14.42289144566195 -7.268442483783044 33.33333333333334
-15.59392877806952 6.988944770567677 6.666666666666666
-15.59392877806952 6.988944770567677 13.33333333333333
-15.59392877806952 6.988944770567677 20
-15.59392877806952 6.988944770567677 26.66666666666666
-15.59392877806952 6.988944770567677 33.33333333333334
7.718081014493178 -15.66266856681104 6.666666666666666
7.718081014493178 -15.66266856681104 13.33333333333333
7.718081014493178 -15.66266856681104 20
7.718081014493178 -15.66266856681104 26.66666666666666
7.718081014493178 -15.66266856681104 33.33333333333334
-13.94881612105975 -8.073876043145226 6.666666666666666
-13.94881612105975 -8.073876043145226 13.33333333333333
-13.94881612105975 -8.073876043145226 20
-13.94881612105975 -8.073876043145226 26.66666666666666
-13.94881612105975 -8.073876043145226 33.33333333333334
-8.770644870994568 14.79739023726699 6.666666666666666
-8.770644870994568 14.79739023726699 13.33333333333333
-8.770644870994568 14.79739023726699 20
-8.770644870994568 14.79739023726699 26.66666666666666
-8.770644870994568 14.79739023726699 33.33333333333334
14.05960647409596 8.810449731684765 6.666666666666666
14.05960647409596 8.810449731684765 13.33333333333333
14.05960647409596 8.810449731684765 20
14.05960647409596 8.810449731684765 26.66666666666666
14.05960647409596 8.810449731684765 33.33333333333334
14.89131386998451 0.8192361497010021 6.666666666666666
14.89131386998451 0.8192361497010021 13.33333333333333
14.89131386998451 0.8192361497010021 20
14.89131386998451 0.8192361497010021 26.66666666666666
14.89131386998451 0.8192361497010021 33.33333333333334
6.339005252241725 1.262144570710534 6.666666666666666
6.339005252241725 1.262144570710534 13.33333333333333
6.339005252241725 1.262144570710534 20
6.339005252241725 1.262144570710534 26.66666666666666
6.339005252241725 1.262144570710534 33.33333333333334
6.135578856092061 8.728354208020347 6.666666666666666
6.135578856092061 8.728354208020347 13.33333333333333
6.135578856092061 8.728354208020347 20
6.135578856092061 8.728354208020347 26.66666666666666
6.135578856092061 8.728354208020347 33.33333333333334
-1.148978161521576 1.058079440226239 6.666666666666666
-1.148978161521576 1.058079440226239 13.33333333333333
-1.148978161521576 1.058079440226239 20
-1.148978161521576 1.058079440226239 26.66666666666666
-1.148978161521576 1.058079440226239 33.33333333333334
-0.903430926184547 -4.567716171015253 6.666666666666666
-0.903430926184547 -4.567716171015253 13.33333333333333
-0.903430926184547 -4.567716171015253 20
-0.903430926184547 -4.567716171015253 26.66666666666666
-0.903430926184547 -4.567716171015253 33.33333333333334
-8.174671485990801 0.2227816903129095 6.666666666666666
-8.174671485990801 0.2227816903129095 13.33333333333333
-8.174671485990801 0.2227816903129095 20
-8.174671485990801 0.2227816903129095 26.66666666666666
-8.174671485990801 0.2227816903129095 33.33333333333334
5.073804029411531 -7.838550733503993 6.666666666666666
5.073804029411531 -7.838550733503993 13.33333333333333
5.073804029411531 -7.838550733503993 20
5.073804029411531 -7.838550733503993 26.66666666666666
5.073804029411531 -7.838550733503993 33.33333333333334
1.977326833818697 -18.34406737985574 6.666666666666666
1.977326833818697 -18.34406737985574 13.33333333333333
1.977326833818697 -18.34406737985574 20
1.977326833818697 -18.34406737985574 26.66666666666666
1.977326833818697 -18.34406737985574 33.33333333333334
-15.67146613764351 -0.2928725666223577 6.666666666666666
-15.67146613764351 -0.2928725666223577 13.33333333333333
-15.67146613764351 -0.2928725666223577 20
-15.67146613764351 -0.2928725666223577 26.66666666666666
-15.67146613764351 -0.2928725666223577 33.33333333333334
-1.05902544930065 16.06754308862871 6.666666666666666
-1.05902544930065 16.06754308862871 13.33333333333333
-1.05902544930065 16.06754308862871 20
-1.05902544930065 16.06754308862871 26.66666666666666
-1.05902544930065 16.06754308862871 33.33333333333334
13.12437261658925 -13.40887354817031 6.666666666666666
13.12437261658925 -13.40887354817031 13.33333333333333
13.12437261658925 -13.40887354817031 20
13.12437261658925 -13.40887354817031 26.66666666666666
13.12437261658925 -13.40887354817031 33.33333333333334
-11.71349055262066 -13.5229389201679 6.666666666666666
-11.71349055262066 -13.5229389201679 13.33333333333333
-11.71349055262066 -13.5229389201679 20
-11.71349055262066 -13.5229389201679 26.66666666666666
-11.71349055262066 -13.5229389201679 33.33333333333334
-14.05040779655856 13.08806037587373 6.666666666666666
-14.05040779655856 13.08806037587373 13.33333333333333
-14.05040779655856 13.08806037587373 20
-14.05040779655856 13.08806037587373 26.66666666666666
-14.05040779655856 13.08806037587373 33.33333333333334
12.69814017217336 14.11107316040434 6.666666666666666
12.69814017217336 14.11107316040434 13.33333333333333
12.69814017217336 14.11107316040434 20
12.69814017217336 14.11107316040434 26.66666666666666
12.69814017217336 14.11107316040434 33.33333333333334
-8.482558992074184 7.556884220393408 6.666666666666666
-8.482558992074184 7.556884220393408 13.33333333333333
-8.482558992074184 7.556884220393408 20
-8.482558992074184 7.556884220393408 26.66666666666666
-8.482558992074184 7.556884220393408 33.33333333333334
-6.124313257905047 -6.422251656072054 6.666666666666666
-6.124313257905047 -6.422251656072054 13.33333333333333
-6.124313257905047 -6.422251656072054 20
-6.124313257905047 -6.422251656072054 26.66666666666666
-6.124313257905047 -6.422251656072054 33.33333333333334
-1.232535058094681 8.370108128795279 6.666666666666666
-1.232535058094681 8.370108128795279 13.33333333333333
-1.232535058094681 8.370108128795279 20
-1.232535058094681 8.370108128795279 26.66666666666666
-1.232535058094681 8.370108128795279 33.33333333333334
$EndNodes
$Elements
7 352 1 352
2 1 3 32
1 67 54 68 57 
2 67 65 76 54 
3 61 62 67 55 
4 61 60 63 62 
5 55 67 57 71 
6 18 19 71 57 
7 15 16 72 58 
8 12 13 73 59 
9 9 10 74 60 
10 4 18 57 68 
11 3 15 58 69 
12 1 9 60 61 
13 2 12 59 70 
14 19 20 55 71 
15 16 17 54 72 
16 13 14 56 73 
17 20 1 61 55 
18 10 11 53 74 
19 17 4 68 54 
20 14 3 69 56 
21 11 2 70 53 
22 64 65 67 62 
23 62 63 77 64 
24 69 58 76 66 
25 64 66 76 65 
26 60 74 53 63 
27 69 66 75 56 
28 77 75 66 64 
29 59 73 56 75 
30 58 72 54 76 
31 75 77 70 59 
32 63 53 70 77 
2 13 3 24
33 1 9 78 33 
34 33 78 79 34 
35 34 79 80 35 
36 35 80 81 36 
37 36 81 82 37 
38 37 82 21 5 
39 9 10 83 78 
40 78 83 84 79 
41 79 84 85 80 
42 80 85 86 81 
43 81 86 87 82 
44 82 87 22 21 
45 10 11 88 83 
46 83 88 89 84 
47 84 89 90 85 
48 85 90 91 86 
49 86 91 92 87 
50 87 92 23 22 
51 11 2 38 88 
52 88 38 39 89 
53 89 39 40 90 
54 90 40 41 91 
55 91 41 42 92 
56 92 42 6 23 
2 17 3 24
57 2 12 93 38 
58 38 93 94 39 
59 39 94 95 40 
60 40 95 96 41 
61 41 96 97 42 
62 42 97 24 6 
63 12 13 98 93 
64 93 98 99 94 
65 94 99 100 95 
66 95 100 101 96 
67 96 101 102 97 
68 97 102 25 24 
69 13 14 103 98 
70 98 103 104 99 
71 99 104 105 100 
72 100 105 106 101 
73 101 106 107 102 
74 102 107 26 25 
75 14 3 43 103 
76 103 43 44 104 
77 104 44 45 105 
78 105 45 46 106 
79 106 46 47 107 
80 107 47 7 26 
2 21 3 24
81 3 15 108 43 
82 43 108 109 44 
83 44 109 110 45 
84 45 110 111 46 
85 46 111 112 47 
86 47 112 27 7 
87 15 16 113 108 
88 108 113 114 109 
89 109 114 115 110 
90 110 115 116 111 
91 111 116 117 112 
92 112 117 28 27 
93 16 17 118 113 
94 113 118 119 114 
95 114 119 120 115 
96 115 120 121 116 
97 116 121 122 117 
98 117 122 29 28 
99 17 4 48 118 
100 118 48 49 119 
101 119 49 50 120 
102 120 50 51 121 
103 121 51 52 122 
104 122 52 8 29 
2 25 3 24
105 4 18 123 48 
106 48 123 124 49 
107 49 124 125 50 
108 50 125 126 51 
109 51 126 127 52 
110 52 127 30 8 
111 18 19 128 123 
112 123 128 129 124 
113 124 129 130 125 
114 125 130 131 126 
115 126 131 132 127 
116 127 132 31 30 
117 19 20 133 128 
118 128 133 134 129 
119 129 134 135 130 
120 130 135 136 131 
121 131 136 137 132 
122 132 137 32 31 
123 20 1 33 133 
124 133 33 34 134 
125 134 34 35 135 
126 135 35 36 136 
127 136 36 37 137 
128 137 37 5 32 
2 26 3 32
129 152 139 153 142 
130 152 150 161 139 
131 146 147 152 140 
132 146 145 148 147 
133 140 152 142 156 
134 30 31 156 142 
135 27 28 157 143 
136 24 25 158 144 
137 21 22 159 145 
138 8 30 142 153 
139 7 27 143 154 
140 5 21 145 146 
141 6 24 144 155 
142 31 32 140 156 
143 28 29 139 157 
144 25 26 141 158 
145 32 5 146 140 
146 22 23 138 159 
147 29 8 153 139 
148 26 7 154 141 
149 23 6 155 138 
150 149 150 152 147 
151 147 148 162 149 
152 154 143 161 151 
153 149 151 161 150 
154 145 159 138 148 
155 154 151 160 141 
156 162 160 151 149 
157 144 158 141 160 
158 143 157 139 161 
159 160 162 155 144 
160 148 138 155 162 
3 1 5 192
161 67 54 68 57 233 168 238 183 
162 233 168 238 183 234 169 239 184 
163 234 169 239 184 235 170 240 185 
164 235 170 240 185 236 171 241 186 
165 236 171 241 186 237 172 242 187 
166 237 172 242 187 152 139 153 142 
167 67 65 76 54 233 223 278 168 
168 233 223 278 168 234 224 279 169 
169 234 224 279 169 235 225 280 170 
170 235 225 280 170 236 226 281 171 
171 236 226 281 171 237 227 282 172 
172 237 227 282 172 152 150 161 139 
173 61 62 67 55 203 208 233 173 
174 203 208 233 173 204 209 234 174 
175 204 209 234 174 205 210 235 175 
176 205 210 235 175 206 211 236 176 
177 206 211 236 176 207 212 237 177 
178 207 212 237 177 146 147 152 140 
179 61 60 63 62 203 198 213 208 
180 203 198 213 208 204 199 214 209 
181 204 199 214 209 205 200 215 210 
182 205 200 215 210 206 201 216 211 
183 206 201 216 211 207 202 217 212 
184 207 202 217 212 146 145 148 147 
185 55 67 57 71 173 233 183 253 
186 173 233 183 253 174 234 184 254 
187 174 234 184 254 175 235 185 255 
188 175 235 185 255 176 236 186 256 
189 176 236 186 256 177 237 187 257 
190 177 237 187 257 140 152 142 156 
191 18 19 71 57 123 128 253 183 
192 123 128 253 183 124 129 254 184 
193 124 129 254 184 125 130 255 185 
194 125 130 255 185 126 131 256 186 
195 126 131 256 186 127 132 257 187 
196 127 132 257 187 30 31 156 142 
197 15 16 72 58 108 113 258 188 
198 108 113 258 188 109 114 259 189 
199 109 114 259 189 110 115 260 190 
200 110 115 260 190 111 116 261 191 
201 111 116 261 191 112 117 262 192 
202 112 117 262 192 27 28 157 143 
203 12 13 73 59 93 98 263 193 
204 93 98 263 193 94 99 264 194 
205 94 99 264 194 95 100 265 195 
206 95 100 265 195 96 101 266 196 
207 96 101 266 196 97 102 267 197 
208 97 102 267 197 24 25 158 144 
209 9 10 74 60 78 83 268 198 
210 78 83 268 198 79 84 269 199 
211 79 84 269 199 80 85 270 200 
212 80 85 270 200 81 86 271 201 
213 81 86 271 201 82 87 272 202 
214 82 87 272 202 21 22 159 145 
215 4 18 57 68 48 123 183 238 
216 48 123 183 238 49 124 184 239 
217 49 124 184 239 50 125 185 240 
218 50 125 185 240 51 126 186 241 
219 51 126 186 241 52 127 187 242 
220 52 127 187 242 8 30 142 153 
221 3 15 58 69 43 108 188 243 
222 43 108 188 243 44 109 189 244 
223 44 109 189 244 45 110 190 245 
224 45 110 190 245 46 111 191 246 
225 46 111 191 246 47 112 192 247 
226 47 112 192 247 7 27 143 154 
227 1 9 60 61 33 78 198 203 
228 33 78 198 203 34 79 199 204 
229 34 79 199 204 35 80 200 205 
230 35 80 200 205 36 81 201 206 
231 36 81 201 206 37 82 202 207 
232 37 82 202 207 5 21 145 146 
233 2 12 59 70 38 93 193 248 
234 38 93 193 248 39 94 194 249 
235 39 94 194 249 40 95 195 250 
236 40 95 195 250 41 96 196 251 
237 41 96 196 251 42 97 197 252 
238 42 97 197 252 6 24 144 155 
239 19 20 55 71 128 133 173 253 
240 128 133 173 253 129 134 174 254 
241 129 134 174 254 130 135 175 255 
242 130 135 175 255 131 136 176 256 
243 131 136 176 256 132 137 177 257 
244 132 137 177 257 31 32 140 156 
245 16 17 54 72 113 118 168 258 
246 113 118 168 258 114 119 169 259 
247 114 119 169 259 115 120 170 260 
248 115 120 170 260 116 121 171 261 
249 116 121 171 261 117 122 172 262 
250 117 122 172 262 28 29 139 157 
251 13 14 56 73 98 103 178 263 
252 98 103 178 263 99 104 179 264 
253 99 104 179 264 100 105 180 265 
254 100 105 180 265 101 106 181 266 
255 101 106 181 266 102 107 182 267 
256 102 107 182 267 25 26 141 158 
257 20 1 61 55 133 33 203 173 
258 133 33 203 173 134 34 204 174 
259 134 34 204 174 135 35 205 175 
260 135 35 205 175 136 36 206 176 
261 136 36 206 176 137 37 207 177 
262 137 37 207 177 32 5 146 140 
263 10 11 53 74 83 88 163 268 
264 83 88 163 268 84 89 164 269 
265 84 89 164 269 85 90 165 270 
266 85 90 165 270 86 91 166 271 
267 86 91 166 271 87 92 167 272 
268 87 92 167 272 22 23 138 159 
269 17 4 68 54 118 48 238 168 
270 118 48 238 168 119 49 239 169 
271 119 49 239 169 120 50 240 170 
272 120 50 240 170 121 51 241 171 
273 121 51 241 171 122 52 242 172 
274 122 52 242 172 29 8 153 139 
275 14 3 69 56 103 43 243 178 
276 103 43 243 178 104 44 244 179 
277 104 44 244 179 105 45 245 180 
278 105 45 245 180 106 46 246 181 
279 106 46 246 181 107 47 247 182 
280 107 47 247 182 26 7 154 141 
281 11 2 70 53 88 38 248 163 
282 88 38 248 163 89 39 249 164 
283 89 39 249 164 90 40 250 165 
284 90 40 250 165 91 41 251 166 
285 91 41 251 166 92 42 252 167 
286 92 42 252 167 23 6 155 138 
287 64 65 67 62 218 223 233 208 
288 218 223 233 208 219 224 234 209 
289 219 224 234 209 220 225 235 210 
290 220 225 235 210 221 226 236 211 
291 221 226 236 211 222 227 237 212 
292 222 227 237 212 149 150 152 147 
293 62 63 77 64 208 213 283 218 
294 208 213 283 218 209 214 284 219 
295 209 214 284 219 210 215 285 220 
296 210 215 285 220 211 216 286 221 
297 211 216 286 221 212 217 287 222 
298 212 217 287 222 147 148 162 149 
299 69 58 76 66 243 188 278 228 
300 243 188 278 228 244 189 279 229 
301 244 189 279 229 245 190 280 230 
302 245 190 280 230 246 191 281 231 
303 246 191 281 231 247 192 282 232 
304 247 192 282 232 154 143 161 151 
305 64 66 76 65 218 228 278 223 
306 218 228 278 223 219 229 279 224 
307 219 229 279 224 220 230 280 225 
308 220 230 280 225 221 231 281 226 
309 221 231 281 226 222 232 282 227 
310 222 232 282 227 149 151 161 150 
311 60 74 53 63 198 268 163 213 
312 198 268 163 213 199 269 164 214 
313 199 269 164 214 200 270 165 215 
314 200 270 165 215 201 271 166 216 
315 201 271 166 216 202 272 167 217 
316 202 272 167 217 145 159 138 148 
317 69 66 75 56 243 228 273 178 
318 243 228 273 178 244 229 274 179 
319 244 229 274 179 245 230 275 180 
320 245 230 275 180 246 231 276 181 
321 246 231 276 181 247 232 277 182 
322 247 232 277 182 154 151 160 141 
323 77 75 66 64 283 273 228 218 
324 283 273 228 218 284 274 229 219 
325 284 274 229 219 285 275 230 220 
326 285 275 230 220 286 276 231 221 
327 286 276 231 221 287 277 232 222 
328 287 277 232 222 162 160 151 149 
329 59 73 56 75 193 263 178 273 
330 193 263 178 273 194 264 179 274 
331 194 264 179 274 195 265 180 275 
332 195 265 180 275 196 266 181 276 
333 196 266 181 276 197 267 182 277 
334 197 267 182 277 144 158 141 160 
335 58 72 54 76 188 258 168 278 
336 188 258 168 278 189 259 169 279 
337 189 259 169 279 190 260 170 280 
338 190 260 170 280 191 261 171 281 
339 191 261 171 281 192 262 172 282 
340 192 262 172 282 143 157 139 161 
341 75 77 70 59 273 283 248 193 
342 273 283 248 193 274 284 249 194 
343 274 284 249 194 275 285 250 195 
344 275 285 250 195 276 286 251 196 
345 276 286 251 196 277 287 252 197 
346 277 287 252 197 160 162 155 144 
347 63 53 70 77 213 163 248 283 
348 213 163 248 283 214 164 249 284 
349 214 164 249 284 215 165 250 285 
350 215 165 250 285 216 166 251 286 
351 216 166 251 286 217 167 252 287 
352 217 167 252 287 148 138 155 162 
$EndElements
