$MeshFormat
4.1 0 8
$EndMeshFormat
$PhysicalNames
4
2 1 "Bottom"
2 2 "Top"
2 3 "Lateral"
3 4 "Cylinder"
$EndPhysicalNames
$Entities
10 12 6 1
0 0 0 0 0 
1 25 0 0 0 
2 0 25 0 0 
3 -25 0 0 0 
4 0 -25 0 0 
5 25 0 38.5 0 
6 0 0 38.5 0 
7 0 25 38.5 0 
12 -25 0 38.5 0 
17 0 -25 38.5 0 
1 1.77635683940025e-15 0 0 25 25 0 0 2 1 -2 
2 -25 1.77635683940025e-15 0 0 25 0 0 2 2 -3 
3 -25 -25 0 -1.77635683940025e-15 0 0 0 2 3 -4 
4 0 -25 0 25 -1.77635683940025e-15 0 0 2 4 -1 
6 1.77635683940025e-15 0 38.5 25 25 38.5 0 2 5 -7 
7 -25 1.77635683940025e-15 38.5 0 25 38.5 0 2 7 -12 
8 -25 -25 38.5 -1.77635683940025e-15 0 38.5 0 2 12 -17 
9 0 -25 38.5 25 -1.77635683940025e-15 38.5 0 2 17 -5 
11 25 0 0 25 0 38.5 0 2 1 -5 
12 0 25 0 0 25 38.5 0 2 2 -7 
16 -25 0 0 -25 0 38.5 0 2 3 -12 
20 0 -25 0 0 -25 38.5 0 2 4 -17 
1 -25 -25 0 25 25 0 1 1 4 1 2 3 4 
13 0 0 0 25 25 38.5 1 3 4 1 12 -6 -11 
17 -25 0 0 0 25 38.5 1 3 4 2 16 -7 -12 
21 -25 -25 0 0 0 38.5 1 3 4 3 20 -8 -16 
25 0 -25 0 25 0 38.5 1 3 4 4 11 -9 -20 
26 -25 -25 38.5 25 25 38.5 1 2 4 6 7 8 9 
1 -25 -25 0 25 25 38.5 1 4 6 -1 26 13 17 21 25 
$EndEntities
$Nodes
27 287 1 287
0 1 0 1
1
25 0 0
0 2 0 1
2
0 25 0
0 3 0 1
3
-25 0 0
0 4 0 1
4
0 -25 0
0 5 0 1
5
25 0 38.5
0 7 0 1
6
0 25 38.5
0 12 0 1
7
-25 0 38.5
0 17 0 1
8
0 -25 38.5
1 1 0 3
9
10
11
23.09698830267303 9.567085833532879 0
17.67766948853961 17.67766957078777 0
9.567085779240045 23.09698832516185 0
1 2 0 3
12
13
14
-9.567085833532879 23.09698830267303 0
-17.67766957078777 17.67766948853961 0
-23.09698832516185 9.567085779240045 0
1 3 0 3
15
16
17
-23.09698830267303 -9.567085833532879 0
-17.67766948853961 -17.67766957078777 0
-9.567085779240045 -23.09698832516185 0
1 4 0 3
18
19
20
9.567085833532879 -23.09698830267303 0
17.67766957078777 -17.67766948853961 0
23.09698832516185 -9.567085779240045 0
1 6 0 3
21
22
23
23.09698830267303 9.567085833532879 38.5
17.67766948853961 17.67766957078777 38.5
9.567085779240045 23.09698832516185 38.5
1 7 0 3
24
25
26
-9.567085833532879 23.09698830267303 38.5
-17.67766957078777 17.67766948853961 38.5
-23.09698832516185 9.567085779240045 38.5
1 8 0 3
27
28
29
-23.09698830267303 -9.567085833532879 38.5
-17.67766948853961 -17.67766957078777 38.5
-9.567085779240045 -23.09698832516185 38.5
1 9 0 3
30
31
32
9.567085833532879 -23.09698830267303 38.5
17.67766957078777 -17.67766948853961 38.5
23.09698832516185 -9.567085779240045 38.5
1 11 0 5
33
34
35
36
37
25 0 6.416666666666666
25 0 12.83333333333333
25 0 19.25
25 0 25.66666666666666
25 0 32.08333333333334
1 12 0 5
38
39
40
41
42
0 25 6.416666666666666
0 25 12.83333333333333
0 25 19.25
0 25 25.66666666666666
0 25 32.08333333333334
1 16 0 5
43
44
45
46
47
-25 0 6.416666666666666
-25 0 12.83333333333333
-25 0 19.25
-25 0 25.66666666666666
-25 0 32.08333333333334
1 20 0 5
48
49
50
51
52
0 -25 6.416666666666666
0 -25 12.83333333333333
0 -25 19.25
0 -25 25.66666666666666
0 -25 32.08333333333334
2 1 0 25
53
54
55
56
57
58
59
60
61
62
63
64
65
66
67
68
69
70
71
72
73
74
75
76
77
-15.59392877769526 6.988944770416298 0
14.42289144621135 -7.268442483721797 0
6.480604858147606 15.84358102260142 0
-1.654757272187072 -14.92015483250761 0
14.059606474488 8.810449731642578 0
-8.770644870638987 14.79739023709578 0
-13.94881612060635 -8.073876043112184 0
7.718081014956222 -15.66266856671333 0
14.8913138705338 0.8192361497032318 0
6.339005253258386 1.262144570681372 0
6.135578856766392 8.728354207909998 0
-1.14897816037113 1.058079440146974 0
-0.9034309250351048 -4.567716170950038 0
-8.174671485129608 0.222781690204029 0
5.073804030248897 -7.838550733407732 0
-1.059025448924202 16.06754308849353 0
-15.67146613720177 -0.2928725666887758 0
1.977326834192898 -18.34406737975085 0
13.12437261693651 -13.40887354811592 0
12.69814017239461 14.1110731603598 0
-14.05040779629954 13.0880603757503 0
-11.71349055224442 -13.52293892007546 0
-8.482558991433111 7.556884220211394 0
-6.124313257084792 -6.422251656011424 0
-1.232535057366621 8.37010812865198 0
2 13 0 15
78
79
80
81
82
83
84
85
86
87
88
89
90
91
92
23.09698830267303 9.567085833532879 6.416666666666666
23.09698830267303 9.567085833532879 12.83333333333333
23.09698830267303 9.567085833532879 19.25
23.09698830267303 9.567085833532879 25.66666666666666
23.09698830267303 9.567085833532879 32.08333333333334
17.67766948853961 17.67766957078777 6.416666666666666
17.67766948853961 17.67766957078777 12.83333333333333
17.67766948853961 17.67766957078777 19.25
17.67766948853961 17.67766957078777 25.66666666666666
17.67766948853961 17.67766957078777 32.08333333333334
9.567085779240045 23.09698832516185 6.416666666666666
9.567085779240045 23.09698832516185 12.83333333333333
9.567085779240045 23.09698832516185 19.25
9.567085779240045 23.09698832516185 25.66666666666666
9.567085779240045 23.09698832516185 32.08333333333334
2 17 0 15
93
94
95
96
97
98
99
100
101
102
103
104
105
106
107
-9.567085833532879 23.09698830267303 6.416666666666666
-9.567085833532879 23.09698830267303 12.83333333333333
-9.567085833532879 23.09698830267303 19.25
-9.567085833532879 23.09698830267303 25.66666666666666
-9.567085833532879 23.09698830267303 32.08333333333334
-17.67766957078777 17.67766948853961 6.416666666666666
-17.67766957078777 17.67766948853961 12.83333333333333
-17.67766957078777 17.67766948853961 19.25
-17.67766957078777 17.67766948853961 25.66666666666666
-17.67766957078777 17.67766948853961 32.08333333333334
-23.09698832516185 9.567085779240045 6.416666666666666
-23.09698832516185 9.567085779240045 12.83333333333333
-23.09698832516185 9.567085779240045 19.25
-23.09698832516185 9.567085779240045 25.66666666666666
-23.09698832516185 9.567085779240045 32.08333333333334
2 21 0 15
108
109
110
111
112
113
114
115
116
117
118
119
120
121
122
-23.09698830267303 -9.567085833532879 6.416666666666666
-23.09698830267303 -9.567085833532879 12.83333333333333
-23.09698830267303 -9.567085833532879 19.25
-23.09698830267303 -9.567085833532879 25.66666666666666
-23.09698830267303 -9.567085833532879 32.08333333333334
-17.67766948853961 -17.67766957078777 6.416666666666666
-17.67766948853961 -17.67766957078777 12.83333333333333
-17.67766948853961 -17.67766957078777 19.25
-17.67766948853961 -17.67766957078777 25.66666666666666
-17.67766948853961 -17.67766957078777 32.08333333333334
-9.567085779240045 -23.09698832516185 6.416666666666666
-9.567085779240045 -23.09698832516185 12.83333333333333
-9.567085779240045 -23.09698832516185 19.25
-9.567085779240045 -23.09698832516185 25.66666666666666
-9.567085779240045 -23.09698832516185 32.08333333333334
2 25 0 15
123
124
125
126
127
128
129
130
131
132
133
134
135
136
137
9.567085833532879 -23.09698830267303 6.416666666666666
9.567085833532879 -23.09698830267303 12.83333333333333
9.567085833532879 -23.09698830267303 19.25
9.567085833532879 -23.09698830267303 25.66666666666666
9.567085833532879 -23.09698830267303 32.08333333333334
17.67766957078777 -17.67766948853961 6.416666666666666
17.67766957078777 -17.67766948853961 12.83333333333333
17.67766957078777 -17.67766948853961 19.25
17.67766957078777 -17.67766948853961 25.66666666666666
17.67766957078777 -17.67766948853961 32.08333333333334
23.09698832516185 -9.567085779240045 6.416666666666666
23.09698832516185 -9.567085779240045 12.83333333333333
23.09698832516185 -9.567085779240045 19.25
23.09698832516185 -9.567085779240045 25.66666666666666
23.09698832516185 -9.567085779240045 32.08333333333334
2 26 0 25
138
139
140
141
142
143
144
145
146
147
148
149
150
151
152
153
154
155
156
157
158
159
160
161
162
-15.59392877769526 6.988944770416298 38.5
14.42289144621135 -7.268442483721797 38.5
6.480604858147606 15.84358102260142 38.5
-1.654757272187072 -14.92015483250761 38.5
14.059606474488 8.810449731642578 38.5
-8.770644870638987 14.79739023709578 38.5
-13.94881612060635 -8.073876043112184 38.5
7.718081014956222 -15.66266856671333 38.5
14.8913138705338 0.8192361497032318 38.5
6.339005253258386 1.262144570681372 38.5
6.135578856766392 8.728354207909998 38.5
-1.14897816037113 1.058079440146974 38.5
-0.9034309250351048 -4.567716170950038 38.5
-8.174671485129608 0.222781690204029 38.5
5.073804030248897 -7.838550733407732 38.5
-1.059025448924202 16.06754308849353 38.5
-15.67146613720177 -0.2928725666887758 38.5
1.977326834192898 -18.34406737975085 38.5
13.12437261693651 -13.40887354811592 38.5
12.69814017239461 14.1110731603598 38.5
-14.05040779629954 13.0880603757503 38.5
-11.71349055224442 -13.52293892007546 38.5
-8.482558991433111 7.556884220211394 38.5
-6.124313257084792 -6.422251656011424 38.5
-1.232535057366621 8.37010812865198 38.5
3 1 0 125
163
164
165
166
167
168
169
170
171
172
173
174
175
176
177
178
179
180
181
182
183
184
185
186
187
188
189
190
191
192
193
194
195
196
197
198
199
200
201
202
203
204
205
206
207
208
209
210
211
212
213
214
215
216
217
218
219
220
221
222
223
224
225
226
227
228
229
230
231
232
233
234
235
236
237
238
239
240
241
242
243
244
245
246
247
248
249
250
251
252
253
254
255
256
257
258
259
260
261
262
263
264
265
266
267
268
269
270
271
272
273
274
275
276
277
278
279
280
281
282
283
284
285
286
287
-15.59392877769526 6.988944770416298 6.416666666666666
-15.59392877769526 6.988944770416298 12.83333333333333
-15.59392877769526 6.988944770416298 19.25
-15.59392877769526 6.988944770416298 25.66666666666666
-15.59392877769526 6.988944770416298 32.08333333333334
14.42289144621135 -7.268442483721797 6.416666666666666
14.42289144621135 -7.268442483721797 12.83333333333333
14.42289144621135 -7.268442483721797 19.25
14.42289144621135 -7.268442483721797 25.66666666666666
14.42289144621135 -7.268442483721797 32.08333333333334
6.480604858147606 15.84358102260142 6.416666666666666
6.480604858147606 15.84358102260142 12.83333333333333
6.480604858147606 15.84358102260142 19.25
6.480604858147606 15.84358102260142 25.66666666666666
6.480604858147606 15.84358102260142 32.08333333333334
-1.654757272187072 -14.92015483250761 6.416666666666666
-1.654757272187072 -14.92015483250761 12.83333333333333
-1.654757272187072 -14.92015483250761 19.25
-1.654757272187072 -14.92015483250761 25.66666666666666
-1.654757272187072 -14.92015483250761 32.08333333333334
14.059606474488 8.810449731642578 6.416666666666666
14.059606474488 8.810449731642578 12.83333333333333
14.059606474488 8.810449731642578 19.25
14.059606474488 8.810449731642578 25.66666666666666
14.059606474488 8.810449731642578 32.08333333333334
-8.770644870638987 14.79739023709578 6.416666666666666
-8.770644870638987 14.79739023709578 12.83333333333333
-8.770644870638987 14.79739023709578 19.25
-8.770644870638987 14.79739023709578 25.66666666666666
-8.770644870638987 14.79739023709578 32.08333333333334
-13.94881612060635 -8.073876043112184 6.416666666666666
-13.94881612060635 -8.073876043112184 12.83333333333333
-13.94881612060635 -8.073876043112184 19.25
-13.94881612060635 -8.073876043112184 25.66666666666666
-13.94881612060635 -8.073876043112184 32.08333333333334
7.718081014956222 -15.66266856671333 6.416666666666666
7.718081014956222 -15.66266856671333 12.83333333333333
7.718081014956222 -15.66266856671333 19.25
7.718081014956222 -15.66266856671333 25.66666666666666
7.718081014956222 -15.66266856671333 32.08333333333334
14.8913138705338 0.8192361497032318 6.416666666666666
14.8913138705338 0.8192361497032318 12.83333333333333
14.8913138705338 0.8192361497032318 19.25
14.8913138705338 0.8192361497032318 25.66666666666666
14.8913138705338 0.8192361497032318 32.08333333333334
6.339005253258386 1.262144570681372 6.416666666666666
6.339005253258386 1.262144570681372 12.83333333333333
6.339005253258386 1.262144570681372 19.25
6.339005253258386 1.262144570681372 25.66666666666666
6.339005253258386 1.262144570681372 32.08333333333334
6.135578856766392 8.728354207909998 6.416666666666666
6.135578856766392 8.728354207909998 12.83333333333333
6.135578856766392 8.728354207909998 19.25
6.135578856766392 8.728354207909998 25.66666666666666
6.135578856766392 8.728354207909998 32.08333333333334
-1.14897816037113 1.058079440146974 6.416666666666666
-1.14897816037113 1.058079440146974 12.83333333333333
-1.14897816037113 1.058079440146974 19.25
-1.14897816037113 1.058079440146974 25.66666666666666
-1.14897816037113 1.058079440146974 32.08333333333334
-0.9034309250351048 -4.567716170950038 6.416666666666666
-0.9034309250351048 -4.567716170950038 12.83333333333333
-0.9034309250351048 -4.567716170950038 19.25
-0.9034309250351048 -4.567716170950038 25.66666666666666
-0.9034309250351048 -4.567716170950038 32.08333333333334
-8.174671485129608 0.222781690204029 6.416666666666666
-8.174671485129608 0.222781690204029 12.83333333333333
-8.174671485129608 0.222781690204029 19.25
-8.174671485129608 0.222781690204029 25.66666666666666
-8.174671485129608 0.222781690204029 32.08333333333334
5.073804030248897 -7.838550733407732 6.416666666666666
5.073804030248897 -7.838550733407732 12.83333333333333
5.073804030248897 -7.838550733407732 19.25
5.073804030248897 -7.838550733407732 25.66666666666666
5.073804030248897 -7.838550733407732 32.08333333333334
-1.059025448924202 16.06754308849353 6.416666666666666
-1.059025448924202 16.06754308849353 12.83333333333333
-1.059025448924202 16.06754308849353 19.25
-1.059025448924202 16.06754308849353 25.66666666666666
-1.059025448924202 16.06754308849353 32.08333333333334
-15.67146613720177 -0.2928725666887758 6.416666666666666
-15.67146613720177 -0.2928725666887758 12.83333333333333
-15.67146613720177 -0.2928725666887758 19.25
-15.67146613720177 -0.2928725666887758 25.66666666666666
-15.67146613720177 -0.2928725666887758 32.08333333333334
1.977326834192898 -18.34406737975085 6.416666666666666
1.977326834192898 -18.34406737975085 12.83333333333333
1.977326834192898 -18.34406737975085 19.25
1.977326834192898 -18.34406737975085 25.66666666666666
1.977326834192898 -18.34406737975085 32.08333333333334
13.12437261693651 -13.40887354811592 6.416666666666666
13.12437261693651 -13.40887354811592 12.83333333333333
13.12437261693651 -13.40887354811592 19.25
13.12437261693651 -13.40887354811592 25.66666666666666
13.12437261693651 -13.40887354811592 32.08333333333334
12.69814017239461 14.1110731603598 6.416666666666666
12.69814017239461 14.1110731603598 12.83333333333333
12.69814017239461 14.1110731603598 19.25
12.69814017239461 14.1110731603598 25.66666666666666
12.69814017239461 14.1110731603598 32.08333333333334
-14.05040779629954 13.0880603757503 6.416666666666666
-14.05040779629954 13.0880603757503 12.83333333333333
-14.05040779629954 13.0880603757503 19.25
-14.05040779629954 13.0880603757503 25.66666666666666
-14.05040779629954 13.0880603757503 32.08333333333334
-11.71349055224442 -13.52293892007546 6.416666666666666
-11.71349055224442 -13.52293892007546 12.83333333333333
-11.71349055224442 -13.52293892007546 19.25
-11.71349055224442 -13.52293892007546 25.66666666666666
-11.71349055224442 -13.52293892007546 32.08333333333334
-8.482558991433111 7.556884220211394 6.416666666666666
-8.482558991433111 7.556884220211394 12.83333333333333
-8.482558991433111 7.556884220211394 19.25
-8.482558991433111 7.556884220211394 25.66666666666666
-8.482558991433111 7.556884220211394 32.08333333333334
-6.124313257084792 -6.422251656011424 6.416666666666666
-6.124313257084792 -6.422251656011424 12.83333333333333
-6.124313257084792 -6.422251656011424 19.25
-6.124313257084792 -6.422251656011424 25.66666666666666
-6.124313257084792 -6.422251656011424 32.08333333333334
-1.232535057366621 8.37010812865198 6.416666666666666
-1.232535057366621 8.37010812865198 12.83333333333333
-1.232535057366621 8.37010812865198 19.25
-1.232535057366621 8.37010812865198 25.66666666666666
-1.232535057366621 8.37010812865198 32.08333333333334
$EndNodes
$Elements
7 352 1 352
2 1 3 32
1 67 56 70 60 
2 67 65 76 56 
3 61 62 67 54 
4 61 57 63 62 
5 54 67 60 71 
6 9 10 72 57 
7 12 13 73 58 
8 15 16 74 59 
9 18 19 71 60 
10 2 12 58 68 
11 3 15 59 69 
12 1 9 57 61 
13 4 18 60 70 
14 10 11 55 72 
15 13 14 53 73 
16 16 17 56 74 
17 19 20 54 71 
18 20 1 61 54 
19 11 2 68 55 
20 14 3 69 53 
21 17 4 70 56 
22 64 65 67 62 
23 62 63 77 64 
24 69 59 76 66 
25 64 66 76 65 
26 57 72 55 63 
27 69 66 75 53 
28 77 75 66 64 
29 58 73 53 75 
30 59 74 56 76 
31 75 77 68 58 
32 63 55 68 77 
2 13 3 24
33 1 9 78 33 
34 33 78 79 34 
35 34 79 80 35 
36 35 80 81 36 
37 36 81 82 37 
38 37 82 21 5 
39 9 10 83 78 
40 78 83 84 79 
41 79 84 85 80 
42 80 85 86 81 
43 81 86 87 82 
44 82 87 22 21 
45 10 11 88 83 
46 83 88 89 84 
47 84 89 90 85 
48 85 90 91 86 
49 86 91 92 87 
50 87 92 23 22 
51 11 2 38 88 
52 88 38 39 89 
53 89 39 40 90 
54 90 40 41 91 
55 91 41 42 92 
56 92 42 6 23 
2 17 3 24
57 2 12 93 38 
58 38 93 94 39 
59 39 94 95 40 
60 40 95 96 41 
61 41 96 97 42 
62 42 97 24 6 
63 12 13 98 93 
64 93 98 99 94 
65 94 99 100 95 
66 95 100 101 96 
67 96 101 102 97 
68 97 102 25 24 
69 13 14 103 98 
70 98 103 104 99 
71 99 104 105 100 
72 100 105 106 101 
73 101 106 107 102 
74 102 107 26 25 
75 14 3 43 103 
76 103 43 44 104 
77 104 44 45 105 
78 105 45 46 106 
79 106 46 47 107 
80 107 47 7 26 
2 21 3 24
81 3 15 108 43 
82 43 108 109 44 
83 44 109 110 45 
84 45 110 111 46 
85 46 111 112 47 
86 47 112 27 7 
87 15 16 113 108 
88 108 113 114 109 
89 109 114 115 110 
90 110 115 116 111 
91 111 116 117 112 
92 112 117 28 27 
93 16 17 118 113 
94 113 118 119 114 
95 114 119 120 115 
96 115 120 121 116 
97 116 121 122 117 
98 117 122 29 28 
99 17 4 48 118 
100 118 48 49 119 
101 119 49 50 120 
102 120 50 51 121 
103 121 51 52 122 
104 122 52 8 29 
2 25 3 24
105 4 18 123 48 
106 48 123 124 49 
107 49 124 125 50 
108 50 125 126 51 
109 51 126 127 52 
110 52 127 30 8 
111 18 19 128 123 
112 123 128 129 124 
113 124 129 130 125 
114 125 130 131 126 
115 126 131 132 127 
116 127 132 31 30 
117 19 20 133 128 
118 128 133 134 129 
119 129 134 135 130 
120 130 135 136 131 
121 131 136 137 132 
122 132 137 32 31 
123 20 1 33 133 
124 133 33 34 134 
125 134 34 35 135 
126 135 35 36 136 
127 136 36 37 137 
128 137 37 5 32 
2 26 3 32
129 152 141 155 145 
130 152 150 161 141 
131 146 147 152 139 
132 146 142 148 147 
133 139 152 145 156 
134 21 22 157 142 
135 24 25 158 143 
136 27 28 159 144 
137 30 31 156 145 
138 6 24 143 153 
139 7 27 144 154 
140 5 21 142 146 
141 8 30 145 155 
142 22 23 140 157 
143 25 26 138 158 
144 28 29 141 159 
145 31 32 139 156 
146 32 5 146 139 
147 23 6 153 140 
148 26 7 154 138 
149 29 8 155 141 
150 149 150 152 147 
151 147 148 162 149 
152 154 144 161 151 
153 149 151 161 150 
154 142 157 140 148 
155 154 151 160 138 
156 162 160 151 149 
157 143 158 138 160 
158 144 159 141 161 
159 160 162 153 143 
160 148 140 153 162 
3 1 5 192
161 67 56 70 60 233 178 248 198 
162 233 178 248 198 234 179 249 199 
163 234 179 249 199 235 180 250 200 
164 235 180 250 200 236 181 251 201 
165 236 181 251 201 237 182 252 202 
166 237 182 252 202 152 141 155 145 
167 67 65 76 56 233 223 278 178 
168 233 223 278 178 234 224 279 179 
169 234 224 279 179 235 225 280 180 
170 235 225 280 180 236 226 281 181 
171 236 226 281 181 237 227 282 182 
172 237 227 282 182 152 150 161 141 
173 61 62 67 54 203 208 233 168 
174 203 208 233 168 204 209 234 169 
175 204 209 234 169 205 210 235 170 
176 205 210 235 170 206 211 236 171 
177 206 211 236 171 207 212 237 172 
178 207 212 237 172 146 147 152 139 
179 61 57 63 62 203 183 213 208 
180 203 183 213 208 204 184 214 209 
181 204 184 214 209 205 185 215 210 
182 205 185 215 210 206 186 216 211 
183 206 186 216 211 207 187 217 212 
184 207 187 217 212 146 142 148 147 
185 54 67 60 71 168 233 198 253 
186 168 233 198 253 169 234 199 254 
187 169 234 199 254 170 235 200 255 
188 170 235 200 255 171 236 201 256 
189 171 236 201 256 172 237 202 257 
190 172 237 202 257 139 152 145 156 
191 9 10 72 57 78 83 258 183 
192 78 83 258 183 79 84 259 184 
193 79 84 259 184 80 85 260 185 
194 80 85 260 185 81 86 261 186 
195 81 86 261 186 82 87 262 187 
196 82 87 262 187 21 22 157 142 
197 12 13 73 58 93 98 263 188 
198 93 98 263 188 94 99 264 189 
199 94 99 264 189 95 100 265 190 
200 95 100 265 190 96 101 266 191 
201 96 101 266 191 97 102 267 192 
202 97 102 267 192 24 25 158 143 
203 15 16 74 59 108 113 268 193 
204 108 113 268 193 109 114 269 194 
205 109 114 269 194 110 115 270 195 
206 110 115 270 195 111 116 271 196 
207 111 116 271 196 112 117 272 197 
208 112 117 272 197 27 28 159 144 
209 18 19 71 60 123 128 253 198 
210 123 128 253 198 124 129 254 199 
211 124 129 254 199 125 130 255 200 
212 125 130 255 200 126 131 256 201 
213 126 131 256 201 127 132 257 202 
214 127 132 257 202 30 31 156 145 
215 2 12 58 68 38 93 188 238 
216 38 93 188 238 39 94 189 239 
217 39 94 189 239 40 95 190 240 
218 40 95 190 240 41 96 191 241 
219 41 96 191 241 42 97 192 242 
220 42 97 192 242 6 24 143 153 
221 3 15 59 69 43 108 193 243 
222 43 108 193 243 44 109 194 244 
223 44 109 194 244 45 110 195 245 
224 45 110 195 245 46 111 196 246 
225 46 111 196 246 47 112 197 247 
226 47 112 197 247 7 27 144 154 
227 1 9 57 61 33 78 183 203 
228 33 78 183 203 34 79 184 204 
229 34 79 184 204 35 80 185 205 
230 35 80 185 205 36 81 186 206 
231 36 81 186 206 37 82 187 207 
232 37 82 187 207 5 21 142 146 
233 4 18 60 70 48 123 198 248 
234 48 123 198 248 49 124 199 249 
235 49 124 199 249 50 125 200 250 
236 50 125 200 250 51 126 201 251 
237 51 126 201 251 52 127 202 252 
238 52 127 202 252 8 30 145 155 
239 10 11 55 72 83 88 173 258 
240 83 88 173 258 84 89 174 259 
241 84 89 174 259 85 90 175 260 
242 85 90 175 260 86 91 176 261 
243 86 91 176 261 87 92 177 262 
244 87 92 177 262 22 23 140 157 
245 13 14 53 73 98 103 163 263 
246 98 103 163 263 99 104 164 264 
247 99 104 164 264 100 105 165 265 
248 100 105 165 265 101 106 166 266 
249 101 106 166 266 102 107 167 267 
250 102 107 167 267 25 26 138 158 
251 16 17 56 74 113 118 178 268 
252 113 118 178 268 114 119 179 269 
253 114 119 179 269 115 120 180 270 
254 115 120 180 270 116 121 181 271 
255 116 121 181 271 117 122 182 272 
256 117 122 182 272 28 29 141 159 
257 19 20 54 71 128 133 168 253 
258 128 133 168 253 129 134 169 254 
259 129 134 169 254 130 135 170 255 
260 130 135 170 255 131 136 171 256 
261 131 136 171 256 132 137 172 257 
262 132 137 172 257 31 32 139 156 
263 20 1 61 54 133 33 203 168 
264 133 33 203 168 134 34 204 169 
265 134 34 204 169 135 35 205 170 
266 135 35 205 170 136 36 206 171 
267 136 36 206 171 137 37 207 172 
268 137 37 207 172 32 5 146 139 
269 11 2 68 55 88 38 238 173 
270 88 38 238 173 89 39 239 174 
271 89 39 239 174 90 40 240 175 
272 90 40 240 175 91 41 241 176 
273 91 41 241 176 92 42 242 177 
274 92 42 242 177 23 6 153 140 
275 14 3 69 53 103 43 243 163 
276 103 43 243 163 104 44 244 164 
277 104 44 244 164 105 45 245 165 
278 105 45 245 165 106 46 246 166 
279 106 46 246 166 107 47 247 167 
280 107 47 247 167 26 7 154 138 
281 17 4 70 56 118 48 248 178 
282 118 48 248 178 119 49 249 179 
283 119 49 249 179 120 50 250 180 
284 120 50 250 180 121 51 251 181 
285 121 51 251 181 122 52 252 182 
286 122 52 252 182 29 8 155 141 
287 64 65 67 62 218 223 233 208 
288 218 223 233 208 219 224 234 209 
289 219 224 234 209 220 225 235 210 
290 220 225 235 210 221 226 236 211 
291 221 226 236 211 222 227 237 212 
292 222 227 237 212 149 150 152 147 
293 62 63 77 64 208 213 283 218 
294 208 213 283 218 209 214 284 219 
295 209 214 284 219 210 215 285 220 
296 210 215 285 220 211 216 286 221 
297 211 216 286 221 212 217 287 222 
298 212 217 287 222 147 148 162 149 
299 69 59 76 66 243 193 278 228 
300 243 193 278 228 244 194 279 229 
301 244 194 279 229 245 195 280 230 
302 245 195 280 230 246 196 281 231 
303 246 196 281 231 247 197 282 232 
304 247 197 282 232 154 144 161 151 
305 64 66 76 65 218 228 278 223 
306 218 228 278 223 219 229 279 224 
307 219 229 279 224 220 230 280 225 
308 220 230 280 225 221 231 281 226 
309 221 231 281 226 222 232 282 227 
310 222 232 282 227 149 151 161 150 
311 57 72 55 63 183 258 173 213 
312 183 258 173 213 184 259 174 214 
313 184 259 174 214 185 260 175 215 
314 185 260 175 215 186 261 176 216 
315 186 261 176 216 187 262 177 217 
316 187 262 177 217 142 157 140 148 
317 69 66 75 53 243 228 273 163 
318 243 228 273 163 244 229 274 164 
319 244 229 274 164 245 230 275 165 
320 245 230 275 165 246 231 276 166 
321 246 231 276 166 247 232 277 167 
322 247 232 277 167 154 151 160 138 
323 77 75 66 64 283 273 228 218 
324 283 273 228 218 284 274 229 219 
325 284 274 229 219 285 275 230 220 
326 285 275 230 220 286 276 231 221 
327 286 276 231 221 287 277 232 222 
328 287 277 232 222 162 160 151 149 
329 58 73 53 75 188 263 163 273 
330 188 263 163 273 189 264 164 274 
331 189 264 164 274 190 265 165 275 
332 190 265 165 275 191 266 166 276 
333 191 266 166 276 192 267 167 277 
334 192 267 167 277 143 158 138 160 
335 59 74 56 76 193 268 178 278 
336 193 268 178 278 194 269 179 279 
337 194 269 179 279 195 270 180 280 
338 195 270 180 280 196 271 181 281 
339 196 271 181 281 197 272 182 282 
340 197 272 182 282 144 159 141 161 
341 75 77 68 58 273 283 238 188 
342 273 283 238 188 274 284 239 189 
343 274 284 239 189 275 285 240 190 
344 275 285 240 190 276 286 241 191 
345 276 286 241 191 277 287 242 192 
346 277 287 242 192 160 162 153 143 
347 63 55 68 77 213 173 238 283 
348 213 173 238 283 214 174 239 284 
349 214 174 239 284 215 175 240 285 
350 215 175 240 285 216 176 241 286 
351 216 176 241 286 217 177 242 287 
352 217 177 242 287 148 140 153 162 
$EndElements
